<ttFont>
          <CharString index="0">
            98 767 rmoveto
            -413 256 -374 501 513 245 374 413 393 -243 390 -515 -501 -256 -390 -393 vhcurveto
            757 -704 rmoveto
            -351 -114 387 317 -4 hvcurveto
            342 -4 120 358 353 hhcurveto
            333 137 -358 -342 -317 -134 -387 -336 hvcurveto
            return
          </CharString>
          <CharString index="1">
            72 515 rmoveto
            -324 229 -211 296 304 221 211 324 316 -222 209 -303 -295 -230 -209 -316 vhcurveto
            525 -452 rmoveto
            -200 -47 198 254 252 47 189 200 200 47 -189 -252 -254 -47 -198 -200 hvcurveto
            return
          </CharString>
          <CharString index="2">
            -103 -20 -39 callsubr
            hstemhm
            177 89 -78 202 668 -21 callgsubr
            hintmask 01101001
            -59 callsubr
            hintmask 10100110
            -73 81 169 -63 186 hhcurveto
            271 238 158 293 192 -101 123 -334 136 hvcurveto
            -358 158 -69 76 140 vvcurveto
            129 139 82 178 183 175 -98 -211 22 vhcurveto
            hintmask 10011001
            96 372 -93 hlineto
            -25 callsubr
            rrcurveto
            hintmask 10100110
            52 -61 -120 45 -165 hhcurveto
            -282 -248 -153 -259 -213 96 -158 395 -142 hvcurveto
            321 -121 58 -97 -128 vvcurveto
            -144 -140 -72 -177 -238 -172 144 201 -51 vhcurveto
            hintmask 01101001
            -103 hlineto
            return
          </CharString>
          <CharString index="3">
            -2 callsubr
            -43 85 vhcurveto
            4 hlineto
            -17 -48 -49 -45 -40 -21 48 -60 rcurveline
            111 55 97 119 96 vvcurveto
            115 -57 71 -100 -96 -56 -54 -3 callgsubr
          </CharString>
          <CharString index="4">
            rmoveto
            344 184 334 -184 28 37 -246 282 rlineto
            25 -22 -41 46 -53 hhcurveto
            -49 -32 -33 -31 -28 hvcurveto
            -263 -290 rlineto
            endchar
          </CharString>
          <CharString index="5">
            174 -136 76 hintmask 0110100010000000
            135 hmoveto
            96 hlineto
            3 39 13 21 20 13 rrcurveto
            hintmask 1010010100000000
            -48 63 104 -45 134 hhcurveto
            156 221 97 212 184 -141 84 -204 72 hvcurveto
            -207 73 -65 53 71 vvcurveto
            71 72 62 120 151 103 -74 -125 23 vhcurveto
            hintmask 0110010010000000
            88 279 -76 hlineto
            -1 -44 -34 -24 -15 -5 rrcurveto
            40 -49 -86 34 -91 hhcurveto
            -213 -179 -112 -184 -160 120 -116 244 -88 hvcurveto
            hintmask 1010100100000000
            171 -61 95 -53 -66 vvcurveto
            -72 -60 -66 -134 -224 -121 151 88 -1 vhcurveto
            -92 hlineto
            hintmask 0110100010000000
            hintmask 0001001000000000
            return
          </CharString>
          <CharString index="6">
            65 -20 98 1389 83 -20 -20 hstemhm
            96 308 945 82 hintmask 11011000
            96 770 rmoveto
            -457 295 -333 479 374 166 211 78 32 vhcurveto
            -52 48 rlineto
            -146 -95 -170 -93 -243 hhcurveto
            -342 -133 346 336 -3 hvcurveto
            389 -3 115 318 381 hhcurveto
            203 205 -125 -231 41 hvcurveto
            85 hlineto
            hintmask 10111000
            419 -82 vlineto
            -1 -38 -18 -43 -23 -27 rrcurveto
            hintmask 11011000
            61 -66 -164 67 -189 hhcurveto
            -515 -277 -355 -425 hvcurveto
            return
          </CharString>
          <CharString index="7">
            70 hintmask 10101010
            191 333 rmoveto
            -305 263 -48 130 115 108 46 72 81 vhcurveto
            hintmask 01101010
            -98 387 78 -129 945 -431 -78 173 -745 vlineto
            hintmask 10101010
            -78 -68 -85 -46 -89 hhcurveto
            -131 -64 75 136 hvcurveto
            736 -402 -78 142 vlineto
            hintmask 00010100
            return
          </CharString>
          <CharString index="8">
            67 519 rmoveto
            -342 242 -197 321 183 129 92 72 56 vhcurveto
            -52 48 rlineto
            -70 -67 -92 -46 -135 hhcurveto
            -206 -103 170 268 279 86 170 202 91 60 -32 -14 20 hvcurveto
            -39 -18 -34 -38 -70 vvcurveto
            -76 63 -46 71 75 59 54 82 163 -213 72 -160 -314 -243 -194 -327 vhcurveto
            return
          </CharString>
          <CharString index="9">
            65 -5 83 -78 -49 callsubr
            625 69 -51 20 711 78 hstemhm
            483 24 540 283 hintmask 01001111
            76 hmoveto
            665 78 -234 hlineto
            hintmask 10010111
            625 183 vlineto
            244 64 -260 -154 35 hvcurveto
            -250 56 57 -44 262 hhcurveto
            141 hlineto
            -2 83 rlineto
            -40 hlineto
            -275 196 576 78 -488 hvcurveto
            226 37 164 133 242 vvcurveto
            182 -91 204 -484 vhcurveto
            -679 -78 162 -54 callgsubr
            -161 hlineto
            hintmask 01001111
            hintmask 00110111
            431 694 rmoveto
            680 212 vlineto
            270 58 -137 -184 -166 -41 -193 -269 hvcurveto
            return
          </CharString>
          <CharString index="10">
            68 56 55 68 68 -56 56 -68 -68 -55 -56 -68 -68 55 -55 68 hvcurveto
            -416 hmoveto
            68 56 55 68 68 -56 56 -68 -68 -55 -56 -68 -68 55 -55 68 hvcurveto
            endchar
          </CharString>
          <CharString index="11">
            653 -20 rmoveto
            90 hlineto
            372 1108 435 -1108 rlineto
            92 hlineto
            496 1472 rlineto
            155 78 -450 -78 191 hlineto
            -361 -1104 -435 1182 rlineto
            -73 hlineto
            -392 -1187 -377 1109 rlineto
            200 78 -645 -78 147 hlineto
            return
          </CharString>
          <CharString index="12">
            rmoveto
            224 129 167 192 -32 hvcurveto
            -57 hlineto
            -126 -50 -88 -61 -126 hhcurveto
            -126 -88 61 126 -50 hvcurveto
            -57 hlineto
            -192 -32 129 -167 224 hhcurveto
            endchar
          </CharString>
          <CharString index="13">
            70 -35 callsubr
            611 15 748 16 -16 78 hstemhm
            646 269 hintmask 10110100
            448 hmoveto
            667 78 -199 574 hlineto
            457 800 rlineto
            151 hlineto
            hintmask 01101100
            78 -442 -78 184 vlineto
            -406 -719 -409 719 rlineto
            203 78 -644 -78 125 hlineto
            512 -862 -1 -512 rlineto
            -198 hlineto
            return
          </CharString>
          <CharString index="14">
            68 56 53 68 68 -56 54 -68 -68 -55 -54 -68 -68 55 -53 68 hvcurveto
            return
          </CharString>
          <CharString index="15">
            rmoveto
            399 -123 21 41 -299 267 -35 30 -27 16 -47 -8 rlinecurve
            -57 -7 -51 -55 14 -67 9 -39 22 -38 51 -17 rrcurveto
            endchar
          </CharString>
          <CharString index="16">
            465 -78 hlineto
            -198 -14 -55 -189 -271 hhcurveto
            return
          </CharString>
          <CharString index="17">
            31 34 -220 334 -26 40 -22 20 -47 6 rlinecurve
            -57 6 -63 -38 -4 -69 -2 -40 11 -43 45 -28 rrcurveto
            endchar
          </CharString>
          <CharString index="18">
            rmoveto
            -258 162 -74 195 119 104 58 71 59 vhcurveto
            -53 47 rlineto
            -60 -54 -61 -29 -65 hhcurveto
            -85 -56 51 122 hvcurveto
            705 329 78 -329 372 vlineto
            -21 -35 -141 -45 -89 hhcurveto
            -306 -121 -78 121 vlineto
            return
          </CharString>
          <CharString index="19">
            -90 69 -69 90 91 69 69 90 91 -69 70 -91 -90 -69 -70 -91 vhcurveto
            return
          </CharString>
          <CharString index="20">
            -107 -43 32 53 46 41 43 65 28 hvcurveto
            -31 67 79 -16 85 hhcurveto
            254 205 149 220 100 -42 88 -69 67 hvcurveto
            77 16 121 72 7 104 rrcurveto
            return
          </CharString>
          <CharString index="21">
            3 24 44 2 21 hhcurveto
            89 57 -28 -57 -112 -180 -32 -107 -9 hvcurveto
            8 -75 rlineto
            186 270 101 168 154 -182 16 -109 -6 hvcurveto
            return
          </CharString>
          <CharString index="22">
            81 hmoveto
            882 317 -69 hlineto
            -138 -16 -22 -103 -208 hhcurveto
            -279 hlineto
            570 870 rlineto
            77 -826 -327 71 vlineto
            154 28 40 97 181 hhcurveto
            224 hlineto
            -576 -869 rlineto
            return
          </CharString>
          <CharString index="23">
            292 vstem
            83 hmoveto
            660 hlineto
            714 153 484 293 398 -186 355 -667 hvcurveto
            -674 -78 201 -54 callgsubr
            -200 hlineto
            470 hmoveto
            -44 callsubr
            191 vlineto
            368 199 -151 -500 7 hvcurveto
            -532 7 -170 -191 -424 hhcurveto
            return
          </CharString>
          <CharString index="24">
            rmoveto
            100 61 128 203 161 vvcurveto
            142 -67 64 -90 -86 -66 -64 -87 -98 70 -63 85 vhcurveto
            9 hlineto
            -9 -105 -63 -110 -63 -46 rrcurveto
            return
          </CharString>
          <CharString index="25">
            rmoveto
            339 263 38 29 14 33 -1 31 rlinecurve
            -1 55 -50 48 -55 -1 -34 -1 -36 -20 -29 -47 -218 -359 rcurveline
            -337 -38 rmoveto
            327 263 37 28 12 34 -2 31 rlinecurve
            -4 55 -52 48 -55 -1 -34 -1 -35 -20 -27 -47 -202 -359 rcurveline
            endchar
          </CharString>
          <CharString index="26">
            0 78 657 78 639 78 hstemhm
            113 830 -660 269 766 292 hintmask 11101100
            83 hmoveto
            660 hlineto
            714 153 484 293 398 -186 355 -667 hvcurveto
            -674 -78 201 hlineto
            -1 -639 rlineto
            hintmask 11110100
            -170 -78 hlineto
            hintmask 11101100
            170 -657 -200 hlineto
            470 hmoveto
            657 vlineto
            hintmask 11110100
            390 78 -390 639 191 hlineto
            -20 callgsubr
          </CharString>
          <CharString index="27">
            139 110 71 211 160 vvcurveto
            111 -51 73 -98 -108 -54 -76 -83 -89 59 -80 96 6 6 0 1 6 vhcurveto
            -10 -94 -35 -122 -83 -75 rrcurveto
            return
          </CharString>
          <CharString index="28">
            55 hmoveto
            584 78 -162 715 hlineto
            101 82 111 51 103 -12 callgsubr
            -162 -78 584 1 callsubr
            vlineto
            282 -230 66 -139 -140 -120 -62 -79 -84 vhcurveto
            return
          </CharString>
          <CharString index="29">
            613 vlineto
            60 92 99 61 109 2 rrcurveto
            116 1 144 -62 -381 vvcurveto
            -325 -110 -115 -151 -90 -108 40 74 -69 vhcurveto
            return
          </CharString>
          <CharString index="30">
            rmoveto
            165 113 85 134 131 -113 86 -165 -159 -119 -86 -131 -134 119 -85 159 hvcurveto
            67 vmoveto
            -82 -44 55 97 100 44 48 82 84 43 -48 -100 -96 -43 -56 -84 hvcurveto
            endchar
          </CharString>
          <CharString index="31">
            470 73 rmoveto
            -75 callgsubr
            109 -420 -80 160 -1425 -150 -78 591 78 -181 vlineto
            662 vmoveto
            -78 callsubr
            return
          </CharString>
          <CharString index="32">
            187 136 145 221 222 -138 148 -185 -176 -148 -148 -222 return
          </CharString>
          <CharString index="33">
            -182 716 hlineto
            96 83 100 55 112 hhcurveto
            126 31 -88 -145 hvcurveto
            return
          </CharString>
          <CharString index="34">
            82 205 78 vstem
            53 hmoveto
            793 78 -324 639 216 hlineto
            110 72 -33 -91 13 hvcurveto
            3 -26 2 -48 2 -30 rrcurveto
            82 523 -82 hlineto
            -2 -29 -2 -38 -3 -26 rrcurveto
            -91 -13 -70 -33 -112 hhcurveto
            -216 657 397 hlineto
            260 -13 35 -129 13 -221 rrcurveto
            78 441 -1253 -78 201 -54 callgsubr
            -199 hlineto
            return
          </CharString>
          <CharString index="35">
            66 -35 callsubr
            1375 49 -48 76 hstemhm
            80 78 474 269 475 78 hintmask 10101110
            -68 callsubr
            hintmask 01011110
            -30 callsubr
            hintmask 01101110
            -56 callgsubr
            return
          </CharString>
          <CharString index="36">
            88 98 -103 106 hhcurveto
            135 82 141 95 44 hvcurveto
            -47 31 rlineto
            -46 -33 -37 -41 -82 hhcurveto
            return
          </CharString>
          <CharString index="37">
            -35 callsubr
            650 78 646 49 -49 78 hstem
            446 35 744 269 vstem
            55 hmoveto
            594 78 -168 650 744 -650 -168 -78 594 78 -156 -44 callsubr
            157 78 -595 -78 169 hlineto
            -1 -646 rlineto
            -744 646 169 78 -595 -78 157 -54 callgsubr
            -156 hlineto
            return
          </CharString>
          <CharString index="38">
            48 -76 -94 27 -104 hhcurveto
            -251 -202 -160 -224 -123 59 -99 96 -65 hvcurveto
            return
          </CharString>
          <CharString index="39">
            433 hmoveto
            669 78 -200 1375 185 hlineto
            237 -16 41 -159 11 -229 rrcurveto
            78 hlineto
            return
          </CharString>
          <CharString index="40">
            -142 -118 -65 -80 -83 hvcurveto
            128 -423 -78 163 -32 callsubr
            return
          </CharString>
          <CharString index="41">
            668 78 211 -20 437 78 return
          </CharString>
          <CharString index="42">
            vstem
            141 hmoveto
            665 78 -205 556 hlineto
            99 98 515 -654 rlineto
            -147 -78 630 78 -142 hlineto
            -678 830 548 544 rlineto
            175 78 -447 -78 149 hlineto
            -702 -697 rlineto
            697 205 78 -665 -78 191 vlineto
            -71 callgsubr
            -190 hlineto
            return
          </CharString>
          <CharString index="43">
            269 vstem
            62 hmoveto
            456 78 -181 1338 hlineto
            589 -1395 rlineto
            40 hlineto
            556 1388 -1 -1331 rlineto
            -182 -78 665 78 -213 -44 callsubr
            195 78 -505 hlineto
            -448 -1113 -451 1113 rlineto
            -522 -78 186 -1374 -184 hlineto
            return
          </CharString>
          <CharString index="44">
            -162 -78 585 78 -163 628 hlineto
            27 -3 26 -4 24 vhcurveto
            93 61 102 68 118 hhcurveto
            121 37 -87 -135 hvcurveto
            -644 -172 -78 595 78 -163 614 vlineto
            282 -230 66 -139 -167 -109 -81 -92 -83 vhcurveto
            131 -66 -147 42 -107 hhcurveto
            return
          </CharString>
          <CharString index="45">
            vstem
            59 hmoveto
            561 78 -148 337 hlineto
            129 108 302 -445 rlineto
            -141 -78 575 78 -137 hlineto
            -416 598 323 270 rlineto
            131 77 -446 -77 186 hlineto
            -506 -430 rlineto
            1168 -413 -78 153 -1528 -153 vlineto
            return
          </CharString>
          <CharString index="46">
            rmoveto
            78 60 62 76 79 -60 60 -78 -77 -61 -60 -79 -76 61 -62 77 hvcurveto
            return
          </CharString>
          <CharString index="47">
            78 -66 callsubr
            return
          </CharString>
          <CharString index="48">
            177 hmoveto
            89 hlineto
            39 17 50 24 27 vhcurveto
            return
          </CharString>
          <CharString index="49">
            -275 -560 83 399 208 155 83 538 54 -4 83 return
          </CharString>
          <CharString index="50">
            233 139 120 110 125 vvcurveto
            163 -133 55 -149 -99 -155 -40 -116 -40 27 -45 68 57 29 51 39 36 -20 23 -26 11 vhcurveto
            14 25 32 6 32 hhcurveto
            72 65 -47 -101 -193 -199 -145 -156 -129 hvcurveto
            return
          </CharString>
          <CharString index="51">
            hmoveto
            167 27 128 117 116 29 -128 -167 -158 -29 -134 -116 -117 -27 134 158 vhcurveto
            return
          </CharString>
          <CharString index="52">
            93 1379 49 -49 56 -56 78 return
          </CharString>
          <CharString index="53">
            hstemhm
            92 266 -194 268 return
          </CharString>
          <CharString index="54">
            77 -615 -77 168 vlineto
            -1 -1375 -214 1 rlineto
            return
          </CharString>
          <CharString index="55">
            -615 -391 1921 hstem
            101 655 vstem
            118 -318 rmoveto
            41 -73 rlineto
            210 56 190 163 307 vvcurveto
            1317 197 78 -655 -78 188 -1071 vlineto
            -449 -8 -174 -163 -76 vhcurveto
            return
          </CharString>
          <CharString index="56">
            102 hlineto
            1135 1530 rlineto
            -99 hlineto
            endchar
          </CharString>
          <CharString index="57">
            -72 -53 -94 -168 -10 vhcurveto
            1 -54 rlineto
            161 36 98 -69 -88 vvcurveto
            -88 -89 -66 -88 -36 -37 6 11 -29 vhcurveto
            25 15 12 31 28 vvcurveto
            34 -31 51 -54 -72 -24 -55 -29 -117 153 -40 135 vhcurveto
            return
          </CharString>
          <CharString index="58">
            78 -19 19 return
          </CharString>
          <CharString index="59">
            rmoveto
            53 48 40 36 54 hhcurveto
            return
          </CharString>
          <CharString index="60">
            893 174 rmoveto
            325 -116 -133 -59 437 59 -118 116 106 hlineto
            32 64 rlineto
            -137 481 -160 hlineto
            -352 -481 rlineto
            82 hmoveto
            243 333 rlineto
            -333 vlineto
            return
          </CharString>
          <CharString index="61">
            237 1 -21 965 41 -41 78 -59 59 -38 38 return
          </CharString>
          <CharString index="62">
            -867 -162 return
          </CharString>
          <CharString index="63">
            1374 return
          </CharString>
          <CharString index="64">
            rmoveto
            1208 -91 callsubr
            -306 1375 178 hlineto
            hintmask 01001101
            -9 callsubr
          </CharString>
          <CharString index="65">
            hstemhm
            98 195 -171 134 -112 244 return
          </CharString>
          <CharString index="66">
            -786 -22 callsubr
            return
          </CharString>
          <CharString index="67">
            184 159 rmoveto
            -98 80 -63 85 vhcurveto
            -5 -121 -57 -137 -64 -53 52 -38 rcurveline
            100 64 138 218 173 vvcurveto
            142 -77 64 -90 -86 -76 -64 -87 vhcurveto
            return
          </CharString>
          <CharString index="68">
            83 -42 -21 1467 83 -20 -20 return
          </CharString>
          <CharString index="69">
            rmoveto
            78 hlineto
            89 536 rlineto
            81 16 -74 47 -62 hhcurveto
            -78 -64 -61 -64 11 hvcurveto
            return
          </CharString>
          <CharString index="70">
            440 754 rmoveto
            620 218 vlineto
            270 29 -145 -170 -168 -58 -137 -214 hvcurveto
            -245 -754 rmoveto
            677 254 vlineto
            return
          </CharString>
          <CharString index="71">
            -162 -78 162 -32 callsubr
            return
          </CharString>
          <CharString index="72">
            0 -49 callsubr
            return
          </CharString>
          <CharString index="73">
            161 43 135 103 189 vvcurveto
            209 -133 175 -331 vhcurveto
            -754 -78 171 -54 callgsubr
            -170 hlineto
            return
          </CharString>
          <CharString index="74">
            -79 vvcurveto
            -70 58 -47 64 64 63 53 80 144 return
          </CharString>
          <CharString index="75">
            -45 callsubr
            vlineto
            return
          </CharString>
          <CharString index="76">
            140 74 60 114 62 59 -22 -34 47 vhcurveto
            3 -13 rlineto
            -247 vlineto
            -18 -7 -54 -64 -136 hhcurveto
            -86 -76 44 154 hvcurveto
            return
          </CharString>
          <CharString index="77">
            481 -1374 -481 78 vlineto
            return
          </CharString>
          <CharString index="78">
            hstemhm
            271 269 return
          </CharString>
          <CharString index="79">
            78 867 return
          </CharString>
          <CharString index="80">
            -615 0 -19 callsubr
            return
          </CharString>
          <CharString index="81">
            -274 -560 97 1408 return
          </CharString>
          <CharString index="82">
            -24 callgsubr
            -21 return
          </CharString>
          <CharString index="83">
            68 55 92 48 131 hhcurveto
            217 112 -125 -177 -243 -175 -227 -285 -96 hvcurveto
            return
          </CharString>
          <CharString index="84">
            188 161 221 140 185 117 rrcurveto
            return
          </CharString>
          <CharString index="85">
            0 -44 callgsubr
            return
          </CharString>
          <CharString index="86">
            -163 729 hlineto
            80 67 95 57 108 hhcurveto
            121 29 -88 -127 hvcurveto
            -651 vlineto
            return
          </CharString>
          <CharString index="87">
            -443 -20 96 887 77 return
          </CharString>
          <CharString index="88">
            -49 callsubr
            -44 callsubr
            78 return
          </CharString>
          <CharString index="89">
            247 169 247 return
          </CharString>
          <CharString index="90">
            -36 callsubr
            endchar
          </CharString>
          <CharString index="91">
            rmoveto
            -13 callsubr
          </CharString>
          <CharString index="92">
            -77 175 hstemhm
            return
          </CharString>
          <CharString index="93">
            21 1493 return
          </CharString>
          <CharString index="94">
            -84 callgsubr
            endchar
          </CharString>
          <CharString index="95">
            -412 -78 147 vlineto
            endchar
          </CharString>
          <CharString index="96">
            hstemhm
            72 278 return
          </CharString>
          <CharString index="97">
            -555 116 return
          </CharString>
          <CharString index="98">
            -53 callsubr
            endchar
          </CharString>
          <CharString index="99">
            1 -21 1472 return
          </CharString>
          <CharString index="100">
            rmoveto
            566 207 -52 hlineto
            -24 -4 -11 -44 -42 hhcurveto
            -280 hlineto
            return
          </CharString>
          <CharString index="101">
            306 -55 -1 1 rlineto
            -2 7 8 -1 7 hhcurveto
            59 42 57 43 return
          </CharString>
          <CharString index="102">
            -445 0 77 868 78 17 -20 return
          </CharString>
          <CharString index="103">
            0 78 -20 20 return
          </CharString>
          <CharString index="104">
            631 hstemhm
            205 309 181 309 hintmask 11000000
            286 return
          </CharString>
          <CharString index="105">
            rmoveto
            -98 70 return
          </CharString>
          <CharString index="106">
            78 -61 60 869 77 583 78 hstem
            212 260 return
          </CharString>
          <CharString index="107">
            78 hstemhm
            119 280 return
          </CharString>
          <CharString index="108">
            78 -162 614 return
          </CharString>
          <CharString index="109">
            82 -41 -21 959 81 -32 callgsubr
            return
          </CharString>
          <CharString index="110">
            hlineto
            135 501 -134 33 -144 -534 rlineto
            return
          </CharString>
          <CharString index="111">
            1316 return
          </CharString>
          <CharString index="112">
            243 -1 59 -37 -21 174 64 431 50 return
          </CharString>
          <CharString index="113">
            71 56 56 72 71 -56 56 -71 -72 -55 -56 -71 return
          </CharString>
          <CharString index="114">
            -10 callsubr
            439 78 return
          </CharString>
          <CharString index="115">
            16 30 31 3 31 hhcurveto
            76 55 -42 -66 hvcurveto
            return
          </CharString>
          <CharString index="116">
            70 -20 -55 callsubr
            return
          </CharString>
          <CharString index="117">
            -20 hstemhm
            239 1237 return
          </CharString>
          <CharString index="118">
            -20 187 109 44 104 -99 279 return
          </CharString>
        <CharString name=".notdef">
          61 -340 100 222 320 4 callsubr
          86 236 100 hstemhm
          0 100 132 328 -19 319 190 249 131 100 hintmask 1111110110000000
          -340 vmoveto
          1530 2380 -1530 hlineto
          100 -2280 rmoveto
          2180 1330 -2180 vlineto
          -780 687 -28 callgsubr
          -203 -183 -157 -10 vhcurveto
          -6 -100 71 -84 98 -1 rrcurveto
          94 71 72 92 77 -48 62 -69 20 hvcurveto
          -24 callsubr
          hintmask 1111101110000000
          -49 -609 rmoveto
          -88 callsubr
          endchar
        </CharString>
        <CharString name=".notdef.001">
          -1134 endchar
        </CharString>
        <CharString name=".null">
          -40 callgsubr
        </CharString>
        <CharString name="A">
          65 -4 callsubr
          -12 12 -39 callgsubr
          hstem
          -14 callsubr
          vstem
          -102 callgsubr
          endchar
        </CharString>
        <CharString name="AE">
          -87 callgsubr
          endchar
        </CharString>
        <CharString name="AEacute">
          -87 callgsubr
          364 835 -103 callgsubr
        </CharString>
        <CharString name="Aacute">
          65 -4 callsubr
          -12 12 -39 callgsubr
          hstem
          -14 callsubr
          vstem
          -102 callgsubr
          -294 1134 -103 callgsubr
        </CharString>
        <CharString name="Abreve">
          65 -4 callsubr
          -12 12 -39 callgsubr
          hstem
          -14 callsubr
          vstem
          -102 callgsubr
          -195 1142 -95 callgsubr
        </CharString>
        <CharString name="Acircumflex">
          65 -4 callsubr
          -12 12 -39 callgsubr
          hstem
          -14 callsubr
          vstem
          -102 callgsubr
          -533 1105 -103 callsubr
        </CharString>
        <CharString name="Adieresis">
          65 0 78 -39 callgsubr
          189 247 hstemhm
          -14 callsubr
          -1099 -18 callsubr
          hintmask 11111000
          -102 callgsubr
          11 1194 rmoveto
          hintmask 11110110
          -97 callsubr
        </CharString>
        <CharString name="Agrave">
          65 -4 callsubr
          -12 12 -39 callgsubr
          hstem
          -14 callsubr
          vstem
          -102 callgsubr
          -472 1269 -92 callsubr
        </CharString>
        <CharString name="Amacron">
          65 0 78 -39 callgsubr
          360 123 hstemhm
          -14 callsubr
          -1086 657 hintmask 11111000
          -102 callgsubr
          hintmask 11110100
          -515 1365 -70 callgsubr
        </CharString>
        <CharString name="Aogonek">
          65 7 callsubr
          -39 callgsubr
          hstemhm
          -14 callsubr
          -621 244 hintmask 11111000
          21 hmoveto
          395 78 -180 hlineto
          132 349 rlineto
          607 hlineto
          144 -349 rlineto
          -150 -78 232 hlineto
          hintmask 11110100
          -137 -70 -171 -135 -147 vvcurveto
          -89 callgsubr
          95 99 113 134 81 hvcurveto
          hintmask 11111000
          144 78 -102 hlineto
          -603 1452 rlineto
          -116 hlineto
          -564 -1452 rlineto
          -108 hlineto
          377 427 rmoveto
          261 691 284 -691 rlineto
          endchar
        </CharString>
        <CharString name="Aring">
          65 0 78 -39 callgsubr
          117 369 -317 264 hstemhm
          -14 callsubr
          -857 197 hintmask 11110100
          -102 callgsubr
          -188 1122 -37 callgsubr
          -112 93 -74 123 hvcurveto
          hintmask 11101010
          -27 callgsubr
          -75 -26 -59 -73 hvcurveto
          endchar
        </CharString>
        <CharString name="Atilde">
          65 0 78 -39 callgsubr
          182 -18 callgsubr
          -14 callsubr
          -1135 740 hintmask 11101100
          21 hmoveto
          395 78 -180 hlineto
          132 349 rlineto
          607 hlineto
          hintmask 11101010
          144 -349 rlineto
          -150 -78 hlineto
          hintmask 11101100
          545 78 -102 hlineto
          -603 1452 rlineto
          -116 hlineto
          -564 -1452 rlineto
          -108 hlineto
          377 427 rmoveto
          261 691 284 -691 rlineto
          -518 1196 -48 callsubr
          hintmask 11110010
          -59 callgsubr
          hintmask 11101010
          -85 -96 98 -115 -77 callgsubr
          endchar
        </CharString>
        <CharString name="B">
          65 -35 callsubr
          677 77 620 78 hstemhm
          276 269 518 261 -171 272 hintmask 10111010
          -22 callgsubr
          hintmask 01111100
          -34 callsubr
          hintmask 10111100
          -37 callsubr
          hintmask 01111010
          -6 callgsubr
          endchar
        </CharString>
        <CharString name="C">
          -101 callsubr
          endchar
        </CharString>
        <CharString name="CR">
          -1134 endchar
        </CharString>
        <CharString name="Cacute">
          -101 callsubr
          676 869 -103 callgsubr
        </CharString>
        <CharString name="Ccaron">
          -101 callsubr
          782 860 -97 callgsubr
        </CharString>
        <CharString name="Ccedilla">
          65 -19 callgsubr
          107 98 1389 83 -20 -20 hstemhm
          96 308 528 177 240 82 hintmask 11110111
          697 -252 rmoveto
          -86 callsubr
          20 108 rlineto
          -1 11 10 0 11 hhcurveto
          374 166 211 78 32 hvcurveto
          -52 48 rlineto
          -146 -95 -170 -93 -243 hhcurveto
          -342 -133 346 336 -3 hvcurveto
          389 -3 115 318 381 hhcurveto
          203 205 -125 -231 41 hvcurveto
          85 hlineto
          hintmask 11101111
          419 -82 vlineto
          -1 -38 -18 -43 -23 -27 rrcurveto
          hintmask 11110111
          61 -66 -164 67 -189 hhcurveto
          -515 -277 -355 -425 -416 244 -313 406 -53 hvcurveto
          endchar
        </CharString>
        <CharString name="Ccircumflex">
          -101 callsubr
          437 840 -103 callsubr
        </CharString>
        <CharString name="Cdotaccent">
          65 -20 98 1389 83 -20 -20 190 262 hstemhm
          96 308 344 262 339 82 hintmask 11001010
          96 770 rmoveto
          -457 295 -333 479 374 166 211 78 32 vhcurveto
          -52 48 rlineto
          -146 -95 -170 -93 -243 hhcurveto
          -342 -133 346 336 -3 hvcurveto
          389 -3 115 318 381 hhcurveto
          203 205 -125 -231 41 hvcurveto
          85 hlineto
          hintmask 10101010
          419 -82 vlineto
          -1 -38 -18 -43 -23 -27 rrcurveto
          hintmask 11001010
          61 -66 -164 67 -189 hhcurveto
          -515 -277 -355 -425 hvcurveto
          hintmask 00010100
          782 930 rmoveto
          73 59 58 -92 callgsubr
          -58 2 callgsubr
        </CharString>
        <CharString name="D">
          -74 callgsubr
          hstem
          283 269 766 -84 callsubr
          endchar
        </CharString>
        <CharString name="Dcaron">
          -74 callgsubr
          hstem
          283 269 766 -84 callsubr
          105 1552 -97 callgsubr
        </CharString>
        <CharString name="Dcroat">
          -81 callsubr
        </CharString>
        <CharString name="Delta">
          144 0 78 -39 39 1452 -20 hstem
          115 1334 vstem
          115 hmoveto
          1334 79 hlineto
          -612 1451 rlineto
          -121 hlineto
          -601 -1451 rlineto
          101 -1 rmoveto
          479 1164 474 -1164 rlineto
          endchar
        </CharString>
        <CharString name="E">
          -106 callgsubr
          endchar
        </CharString>
        <CharString name="Eacute">
          -106 callgsubr
          631 1560 -103 callgsubr
        </CharString>
        <CharString name="Ebreve">
          -106 callgsubr
          730 1568 -95 callgsubr
        </CharString>
        <CharString name="Ecaron">
          -106 callgsubr
          737 1551 -97 callgsubr
        </CharString>
        <CharString name="Ecircumflex">
          -106 callgsubr
          392 1531 -103 callsubr
        </CharString>
        <CharString name="Edieresis">
          66 0 -60 callsubr
          169 247 -29 callsubr
          -72 -18 callsubr
          -147 84 218 78 -55 78 hintmask 1111010010100000
          71 hmoveto
          -7 callgsubr
          -428 668 250 hlineto
          110 63 -33 -91 13 hvcurveto
          3 -26 2 -47 2 -30 rrcurveto
          84 516 -84 hlineto
          -2 -29 -2 -32 -3 -26 rrcurveto
          -91 -13 -61 -33 -112 hhcurveto
          -250 628 457 hlineto
          hintmask 1111010011000000
          260 -13 15 -124 13 -221 rrcurveto
          78 436 -1293 -78 201 hlineto
          -1 -1373 rlineto
          -200 hlineto
          hintmask 0000101100000000
          936 1620 rmoveto
          -97 callsubr
        </CharString>
        <CharString name="Edotaccent">
          66 0 -60 callsubr
          -10 callgsubr
          -29 callsubr
          138 262 44 -79 callgsubr
          737 1621 rmoveto
          73 59 58 -92 callgsubr
          -58 2 callgsubr
        </CharString>
        <CharString name="Egrave">
          -106 callgsubr
          453 1695 -92 callsubr
        </CharString>
        <CharString name="Emacron">
          66 0 -60 callsubr
          340 123 -29 callsubr
          -59 657 -154 -79 callgsubr
          410 1791 -70 callgsubr
        </CharString>
        <CharString name="Eng">
          0 -45 callgsubr
          991 98 vstem
          73 hmoveto
          495 78 -203 1252 hlineto
          917 -1330 rlineto
          74 hlineto
          -195 -113 -104 -169 -43 vhcurveto
          22 -81 rlineto
          295 81 63 181 161 vvcurveto
          1452 183 78 -475 -78 194 -1108 vlineto
          -810 1186 rlineto
          -453 -78 174 -1374 -194 hlineto
          endchar
        </CharString>
        <CharString name="Eogonek">
          66 -555 116 439 -60 callsubr
          -29 callsubr
          249 244 -49 84 218 78 -55 78 hintmask 1111111001000000
          71 hmoveto
          1026 hlineto
          -137 -70 -171 -135 -147 vvcurveto
          -89 callgsubr
          98 49 80 158 111 hvcurveto
          147 -91 callsubr
          -428 668 250 hlineto
          110 63 -33 -91 13 hvcurveto
          hintmask 1111110110000000
          3 -26 2 -47 2 -30 rrcurveto
          84 516 -84 hlineto
          -2 -29 -2 -32 -3 -26 rrcurveto
          -91 -13 -61 -33 -112 hhcurveto
          -250 628 457 hlineto
          260 -13 15 -124 13 -221 rrcurveto
          78 436 -1293 -78 201 hlineto
          -1 -1373 rlineto
          -200 hlineto
          endchar
        </CharString>
        <CharString name="Eth">
          -81 callsubr
        </CharString>
        <CharString name="Euro">
          65 -20 89 532 78 171 78 533 86 hstem
          209 298 712 95 vstem
          40 601 rmoveto
          178 hlineto
          50 -403 241 -223 359 5 198 3 197 128 51 295 rrcurveto
          -114 hlineto
          -37 -207 -104 -128 -164 -2 -227 -3 -119 242 -33 293 rrcurveto
          565 hlineto
          7 78 rlineto
          -578 hlineto
          -2 28 -1 29 29 vvcurveto
          29 0 28 1 28 vhcurveto
          593 hlineto
          7 78 rlineto
          -595 hlineto
          308 27 116 225 221 hhcurveto
          215 87 -160 -183 30 hvcurveto
          105 389 -95 hlineto
          -7 -28 -15 -40 -19 -31 rrcurveto
          63 -57 -110 76 -143 hhcurveto
          -351 -238 -276 -343 -57 hvcurveto
          -155 hlineto
          -7 -78 rlineto
          152 hlineto
          -2 -28 -1 -29 -28 vvcurveto
          -30 1 -28 1 -28 vhcurveto
          -164 hlineto
          endchar
        </CharString>
        <CharString name="F">
          -102 -35 callsubr
          639 78 657 49 -49 78 hstem
          252 269 419 -73 callsubr
          endchar
        </CharString>
        <CharString name="G">
          -20 1570 hstem
          107 1552 vstem
          -101 callgsubr
          endchar
        </CharString>
        <CharString name="Gbreve">
          -20 1570 hstem
          107 1552 vstem
          -101 callgsubr
          797 879 -95 callgsubr
        </CharString>
        <CharString name="Gcircumflex">
          -20 1570 hstem
          107 1552 vstem
          -101 callgsubr
          459 842 -103 callsubr
        </CharString>
        <CharString name="Gcommaaccent">
          -52 callgsubr
          316 1570 hstemhm
          107 1552 -913 309 hintmask 00110000
          -101 callgsubr
          hintmask 11001000
          639 -1013 -104 callsubr
        </CharString>
        <CharString name="Gdotaccent">
          -20 1570 150 262 hstemhm
          107 1552 -878 262 hintmask 10100000
          -101 callgsubr
          hintmask 01010000
          804 932 rmoveto
          73 59 58 -92 callgsubr
          -58 2 callgsubr
        </CharString>
        <CharString name="H">
          -70 callsubr
          endchar
        </CharString>
        <CharString name="Hbar">
          -35 callsubr
          650 78 263 78 305 78 hstemhm
          56 1592 -1202 35 744 269 hintmask 10111011
          55 hmoveto
          594 78 -168 650 744 -650 -168 -78 594 78 -156 991 hlineto
          hintmask 01111100
          153 78 -153 305 157 78 -595 -78 169 hlineto
          hintmask 01111011
          -1 -305 rlineto
          -744 305 169 78 -595 -78 157 hlineto
          -1 -305 rlineto
          hintmask 01111100
          -155 -78 155 -991 -156 hlineto
          hintmask 10111011
          426 728 rmoveto
          263 744 -263 vlineto
          endchar
        </CharString>
        <CharString name="Hcircumflex">
          -70 callsubr
          471 1532 -103 callsubr
        </CharString>
        <CharString name="I">
          -615 -74 callgsubr
          hstem
          292 269 vstem
          -93 callgsubr
          endchar
        </CharString>
        <CharString name="IJ">
          239 -391 1921 -1530 -19 callsubr
          hstemhm
          292 269 394 655 hintmask 01011100
          -93 callgsubr
          877 -396 rmoveto
          hintmask 10001100
          41 -73 rlineto
          210 56 190 163 307 vvcurveto
          hintmask 00111100
          1317 197 78 -655 -78 188 -1071 vlineto
          -449 -8 -174 -163 -76 vhcurveto
          endchar
        </CharString>
        <CharString name="Iacute">
          -615 -74 callgsubr
          hstem
          292 269 vstem
          -93 callgsubr
          227 1561 -103 callgsubr
        </CharString>
        <CharString name="Ibreve">
          -615 -74 callgsubr
          hstem
          292 269 vstem
          -93 callgsubr
          326 1569 -95 callgsubr
        </CharString>
        <CharString name="Icircumflex">
          -615 -74 callgsubr
          hstem
          292 269 vstem
          -93 callgsubr
          -12 1532 -103 callsubr
        </CharString>
        <CharString name="Idieresis">
          -27 callsubr
          169 247 hstemhm
          88 247 -43 269 -57 247 hintmask 10110100
          -93 callgsubr
          532 1621 rmoveto
          hintmask 01111010
          -97 callsubr
        </CharString>
        <CharString name="Idotaccent">
          -27 callsubr
          -10 callgsubr
          hstemhm
          292 269 -263 262 hintmask 10111000
          -93 callgsubr
          333 1622 rmoveto
          hintmask 01110100
          73 59 58 -92 callgsubr
          -58 2 callgsubr
        </CharString>
        <CharString name="Igrave">
          -615 -74 callgsubr
          hstem
          292 269 vstem
          -93 callgsubr
          49 1696 -92 callsubr
        </CharString>
        <CharString name="Imacron">
          -27 callsubr
          340 123 hstemhm
          101 657 -466 269 hintmask 10110100
          -93 callgsubr
          hintmask 01111000
          6 1792 -70 callgsubr
        </CharString>
        <CharString name="Iogonek">
          -615 -555 116 439 -19 callsubr
          hstemhm
          74 244 -26 269 hintmask 11011000
          95 hmoveto
          263 hlineto
          -126 -70 -158 -36 callgsubr
          91 113 117 81 hvcurveto
          233 78 -197 -44 callsubr
          197 78 -664 -78 198 hlineto
          hintmask 10110100
          -71 callgsubr
          -197 hlineto
          endchar
        </CharString>
        <CharString name="Itilde">
          -27 callsubr
          162 -18 callgsubr
          52 740 -500 269 hintmask 10101010
          -93 callgsubr
          3 1623 -48 callsubr
          hintmask 01110100
          -59 callgsubr
          hintmask 01101100
          -85 -96 98 -115 -77 callgsubr
          endchar
        </CharString>
        <CharString name="J">
          -52 callsubr
          endchar
        </CharString>
        <CharString name="Jcircumflex">
          -52 callsubr
          -42 1928 -103 callsubr
        </CharString>
        <CharString name="K">
          -74 callgsubr
          -47 47 hstem
          331 269 -65 callsubr
          endchar
        </CharString>
        <CharString name="Kcommaaccent">
          -52 callgsubr
          336 -69 callgsubr
          -47 47 hstem
          331 269 135 309 -65 callsubr
          594 -323 -104 callsubr
        </CharString>
        <CharString name="L">
          -58 callgsubr
          endchar
        </CharString>
        <CharString name="Lacute">
          -58 callgsubr
          hintmask 10101100
          246 1560 -103 callgsubr
        </CharString>
        <CharString name="Lcaron">
          -102 -4 callsubr
          961 665 -251 -25 callgsubr
          438 134 75 78 hintmask 00100010
          916 1039 rmoveto
          -80 callsubr
          hintmask 10010101
          -789 -1086 -43 callsubr
        </CharString>
        <CharString name="Lcommaaccent">
          -102 -52 callgsubr
          336 78 -20 20 1375 -25 callgsubr
          23 309 315 78 hintmask 0010101010000000
          71 hmoveto
          1208 -91 callsubr
          -306 1375 178 hlineto
          hintmask 0001011010000000
          -53 callsubr
          hintmask 0010101010000000
          hintmask 1100000100000000
          506 -324 -104 callsubr
        </CharString>
        <CharString name="Ldot">
          -102 -4 callsubr
          635 262 478 -25 callgsubr
          552 262 -167 78 hintmask 00100010
          1106 843 rmoveto
          -72 58 -58 72 73 59 58 72 73 -59 59 -73 -72 -58 -59 -73 vhcurveto
          hintmask 10010101
          -1035 -843 -43 callsubr
        </CharString>
        <CharString name="Lslash">
          -102 -4 callsubr
          473 542 360 48 -48 77 hstemhm
          64 955 -734 269 647 78 hintmask 10110101
          71 hmoveto
          1208 -91 callsubr
          -306 707 hlineto
          464 238 -33 70 -431 -221 rlineto
          581 178 vlineto
          hintmask 01101011
          77 -615 -77 168 vlineto
          -1 -719 rlineto
          hintmask 01110101
          -221 -113 33 -70 rlineto
          hintmask 01110011
          188 96 rlineto
          -569 vlineto
          -214 1 rlineto
          endchar
        </CharString>
        <CharString name="M">
          580 -74 callgsubr
          -29 29 -21 21 hstem
          246 91 1184 -64 callsubr
          endchar
        </CharString>
        <CharString name="N">
          0 -45 callgsubr
          991 98 vstem
          -90 callgsubr
          endchar
        </CharString>
        <CharString name="Nacute">
          0 -45 callgsubr
          991 98 vstem
          -90 callgsubr
          703 1561 -103 callgsubr
        </CharString>
        <CharString name="Ncaron">
          0 -45 callgsubr
          991 98 vstem
          -90 callgsubr
          809 1552 -97 callgsubr
        </CharString>
        <CharString name="Ncommaaccent">
          -52 callgsubr
          336 -45 callgsubr
          336 309 346 98 vstem
          -90 callgsubr
          608 -323 -104 callsubr
        </CharString>
        <CharString name="Ntilde">
          0 78 -44 callsubr
          78 -45 45 162 -18 callgsubr
          267 98 161 740 90 98 hintmask 11001111
          -90 callgsubr
          479 1623 -48 callsubr
          hintmask 10110111
          -59 callgsubr
          hintmask 10101111
          -85 -96 98 -115 -77 callgsubr
          endchar
        </CharString>
        <CharString name="O">
          -50 callgsubr
          hstem
          98 288 939 288 vstem
          -107 callsubr
          endchar
        </CharString>
        <CharString name="OE">
          921 -20 98 -78 -49 callsubr
          -66 callsubr
          -78 98 hstemhm
          125 288 696 269 455 84 218 78 -55 78 hintmask 1001110111010000
          125 768 rmoveto
          -437 277 -351 480 vhcurveto
          hintmask 0101110111010000
          68 65 7 13 60 hvcurveto
          1161 -91 callsubr
          -439 668 261 hlineto
          110 63 -33 -91 13 hvcurveto
          3 -26 2 -47 2 -30 rrcurveto
          84 516 -84 hlineto
          -2 -29 -2 -32 -3 -26 rrcurveto
          -91 -13 -61 -33 -112 hhcurveto
          -261 628 468 hlineto
          hintmask 0011110111100000
          260 -13 15 -124 13 -221 rrcurveto
          78 436 -1142 hlineto
          hintmask 0011101111010000
          13 -59 -63 7 -67 hhcurveto
          -480 -277 -367 -415 hvcurveto
          288 hmoveto
          356 -4 110 326 363 hhcurveto
          90 76 -23 -40 62 hvcurveto
          -1 -1243 rlineto
          -42 -62 -75 -24 -90 hhcurveto
          -361 -104 360 330 -4 hvcurveto
          endchar
        </CharString>
        <CharString name="Oacute">
          -50 callgsubr
          hstem
          98 288 939 288 vstem
          -107 callsubr
          -106 1576 -103 callgsubr
        </CharString>
        <CharString name="Obreve">
          -50 callgsubr
          hstem
          98 288 939 288 vstem
          -107 callsubr
          -7 1584 -95 callgsubr
        </CharString>
        <CharString name="Ocircumflex">
          -50 callgsubr
          hstem
          98 288 939 288 vstem
          -107 callsubr
          -345 1547 -103 callsubr
        </CharString>
        <CharString name="Odieresis">
          -50 callgsubr
          149 247 hstemhm
          98 288 129 -18 callsubr
          147 288 hintmask 11010010
          -107 callsubr
          hintmask 00101100
          199 1636 rmoveto
          -97 callsubr
        </CharString>
        <CharString name="Ograve">
          -50 callgsubr
          hstem
          98 288 939 288 vstem
          -107 callsubr
          -284 1711 -92 callsubr
        </CharString>
        <CharString name="Ohungarumlaut">
          -50 callgsubr
          hstem
          98 288 939 288 vstem
          -107 callsubr
          148 1531 -81 callgsubr
        </CharString>
        <CharString name="Omacron">
          -50 callgsubr
          320 123 hstemhm
          98 288 142 657 140 288 hintmask 11010100
          -107 callsubr
          hintmask 00101000
          -327 1807 -70 callgsubr
        </CharString>
        <CharString name="Omega">
          408 0 1550 hstem
          871 155 vstem
          173 hmoveto
          698 79 hlineto
          -245 284 -126 121 336 vvcurveto
          356 119 294 326 329 123 -294 -356 -336 -126 -121 -245 -284 vhcurveto
          -79 678 368 -76 vlineto
          -57 -10 -27 -106 -102 hhcurveto
          -270 hlineto
          280 179 176 261 237 vvcurveto
          301 -242 367 -488 -474 -249 -367 -301 -237 166 -261 280 -179 vhcurveto
          -280 hlineto
          -102 -27 106 57 -10 hvcurveto
          -76 hlineto
          endchar
        </CharString>
        <CharString name="Oslash">
          242 -20 83 -51 -21 1476 83 -10 -20 hstemhm
          98 288 -212 1351 -200 288 hintmask 01010100
          174 69 rmoveto
          92 -78 115 139 rlineto
          hintmask 10011010
          -94 120 158 -56 196 hhcurveto
          513 245 374 413 206 -67 205 -138 149 hvcurveto
          hintmask 01010100
          117 135 -92 78 -111 -135 rlineto
          hintmask 01101010
          90 -119 -155 55 -193 hhcurveto
          -501 -256 -390 -393 -211 66 -200 132 -146 hvcurveto
          hintmask 01010100
          156 169 rmoveto
          hintmask 10101010
          -45 121 -20 139 -1 128 rrcurveto
          342 -4 120 358 353 hhcurveto
          156 113 -79 -119 76 hvcurveto
          -393 -479 rlineto
          -302 -521 rmoveto
          374 453 377 437 rlineto
          47 -117 22 -139 -136 vvcurveto
          -317 -134 -387 -336 -164 -112 84 122 -74 vhcurveto
          endchar
        </CharString>
        <CharString name="Otilde">
          -50 callgsubr
          142 -18 callgsubr
          98 288 93 740 106 288 hintmask 11001010
          -107 callsubr
          hintmask 00000000
          -330 1638 rmoveto
          hintmask 00010100
          53 48 40 36 54 hhcurveto
          91 101 -103 5 104 hvcurveto
          121 82 135 96 53 hvcurveto
          hintmask 00100100
          -46 33 rlineto
          -53 -48 -40 -36 -54 -85 -96 98 -115 -77 callgsubr
          endchar
        </CharString>
        <CharString name="P">
          4 callgsubr
          hstem
          222 269 528 -65 callgsubr
          endchar
        </CharString>
        <CharString name="Q">
          242 -435 204 211 83 1404 83 hstemhm
          98 288 -23 1142 -180 288 hintmask 11101000
          363 -387 rmoveto
          53 -34 rlineto
          65 59 87 51 68 176 175 -130 189 hhcurveto
          160 141 196 90 34 hvcurveto
          -52 34 rlineto
          -65 -59 -88 -51 -68 hhcurveto
          -173 -101 75 34 -131 hvcurveto
          196 118 rlineto
          hintmask 11110100
          394 75 190 333 363 vvcurveto
          393 -243 390 -515 -501 -256 -390 -393 -412 255 -373 499 -2 vhcurveto
          -195 -107 rlineto
          hintmask 11101000
          -109 -60 -154 -113 -31 -87 rrcurveto
          492 450 rmoveto
          hintmask 11110100
          -351 -114 387 317 -4 hvcurveto
          342 -4 120 358 353 hhcurveto
          333 137 -358 -342 -317 -134 -387 -336 hvcurveto
          endchar
        </CharString>
        <CharString name="R">
          -98 callsubr
          endchar
        </CharString>
        <CharString name="Racute">
          -98 callsubr
          -127 866 -103 callgsubr
        </CharString>
        <CharString name="Rcaron">
          -98 callsubr
          -21 857 -97 callgsubr
        </CharString>
        <CharString name="Rcommaaccent">
          65 -52 callgsubr
          331 83 -78 -49 callsubr
          625 69 -51 20 711 78 hstemhm
          483 24 163 309 68 283 hintmask 0001001110100000
          76 hmoveto
          665 78 -234 hlineto
          hintmask 0010010110100000
          625 183 vlineto
          244 64 -260 -154 35 hvcurveto
          -250 56 57 -44 262 hhcurveto
          141 hlineto
          -2 83 rlineto
          -40 hlineto
          -275 196 576 78 -488 hvcurveto
          226 37 164 133 242 vvcurveto
          182 -91 204 -484 vhcurveto
          -679 -78 162 -54 callgsubr
          -161 hlineto
          hintmask 0001001110100000
          hintmask 0000110110100000
          431 694 rmoveto
          680 212 vlineto
          270 58 -137 -184 -166 -41 -193 -269 hvcurveto
          hintmask 1100000001000000
          -67 -1017 -104 callsubr
        </CharString>
        <CharString name="S">
          -105 callsubr
          endchar
        </CharString>
        <CharString name="Sacute">
          -105 callsubr
          426 1231 -103 callgsubr
        </CharString>
        <CharString name="Scaron">
          -105 callsubr
          532 1222 -97 callgsubr
        </CharString>
        <CharString name="Scedilla">
          -103 -19 callgsubr
          107 -39 callsubr
          hstemhm
          177 89 -78 202 470 177 21 -21 callgsubr
          hintmask 1101101011000000
          -59 callsubr
          70 -64 138 -56 158 -13 -48 -235 rcurveline
          -86 callsubr
          20 108 rlineto
          261 9 225 156 285 vvcurveto
          192 -101 123 -334 136 vhcurveto
          hintmask 1110100110100000
          -358 158 -69 76 140 vvcurveto
          129 139 82 178 183 175 -98 -211 22 vhcurveto
          96 hlineto
          hintmask 1110011010100000
          372 -93 vlineto
          -25 callsubr
          rrcurveto
          hintmask 1110100111000000
          52 -61 -120 45 -165 hhcurveto
          -282 -248 -153 -259 -213 96 -158 395 -142 hvcurveto
          321 -121 58 -97 -128 vvcurveto
          -144 -140 -72 -177 -238 -172 144 201 -51 vhcurveto
          hintmask 1101101010100000
          -103 hlineto
          endchar
        </CharString>
        <CharString name="Scircumflex">
          -105 callsubr
          187 1202 -103 callsubr
        </CharString>
        <CharString name="Scommaaccent">
          -103 -52 callgsubr
          316 -39 callsubr
          hstemhm
          177 89 -78 202 205 309 154 -21 callgsubr
          hintmask 0001101000100000
          -59 callsubr
          hintmask 0010100101000000
          -73 81 169 -63 186 hhcurveto
          271 238 158 293 192 -101 123 -334 136 hvcurveto
          -358 158 -69 76 140 vvcurveto
          129 139 82 178 183 175 -98 -211 22 vhcurveto
          hintmask 0010011000100000
          96 372 -93 hlineto
          -25 callsubr
          rrcurveto
          hintmask 0010100101000000
          52 -61 -120 45 -165 hhcurveto
          -282 -248 -153 -259 -213 96 -158 395 -142 hvcurveto
          321 -121 58 -97 -128 vvcurveto
          -144 -140 -72 -177 -238 -172 144 201 -51 vhcurveto
          hintmask 0001101000100000
          -103 hlineto
          hintmask 1100000010000000
          418 -653 -104 callsubr
        </CharString>
        <CharString name="T">
          -72 callsubr
          endchar
        </CharString>
        <CharString name="Tbar">
          66 -35 callsubr
          665 78 632 49 -48 76 hstemhm
          80 78 162 890 -578 269 475 78 hintmask 1011011010000000
          433 hmoveto
          669 78 -200 665 308 78 -308 632 185 hlineto
          237 -16 41 -159 11 -229 rrcurveto
          78 hlineto
          hintmask 0110111010000000
          -30 callsubr
          hintmask 0111010110000000
          10 229 41 159 238 16 rrcurveto
          186 hlineto
          -1 -632 rlineto
          hintmask 0110111010000000
          -312 -78 hlineto
          hintmask 0110110110000000
          312 -665 -199 hlineto
          endchar
        </CharString>
        <CharString name="Tcaron">
          -72 callsubr
          hintmask 10011110
          335 1552 -97 callgsubr
        </CharString>
        <CharString name="Tcommaaccent">
          66 -52 callgsubr
          336 -49 callsubr
          1375 49 -48 76 hstemhm
          80 78 461 309 -296 269 475 78 hintmask 0010101011000000
          -68 callsubr
          hintmask 0001011011000000
          -30 callsubr
          hintmask 0001101011000000
          -56 callgsubr
          hintmask 0010011011000000
          hintmask 1100000100000000
          186 -323 -104 callsubr
        </CharString>
        <CharString name="Thorn">
          -105 -35 callsubr
          239 69 771 69 226 49 -49 78 hstem
          222 269 538 281 vstem
          51 hmoveto
          654 78 -213 239 183 hlineto
          434 201 200 280 255 -177 174 -462 hvcurveto
          -179 226 213 78 -654 -78 172 -54 callgsubr
          -171 hlineto
          441 308 rmoveto
          771 210 vlineto
          233 94 -156 -215 -157 -61 -243 -268 hvcurveto
          endchar
        </CharString>
        <CharString name="U">
          70 -20 -66 callgsubr
          783 98 vstem
          -105 callgsubr
          endchar
        </CharString>
        <CharString name="Uacute">
          70 -20 -66 callgsubr
          783 98 vstem
          -105 callgsubr
          515 186 -103 callgsubr
        </CharString>
        <CharString name="Ubreve">
          70 -20 -66 callgsubr
          783 98 vstem
          -105 callgsubr
          614 194 -95 callgsubr
        </CharString>
        <CharString name="Ucircumflex">
          70 -20 -66 callgsubr
          783 98 vstem
          -105 callgsubr
          276 157 -103 callsubr
        </CharString>
        <CharString name="Udieresis">
          9 callsubr
          168 247 hstem
          182 270 12 -18 callsubr
          108 98 vstem
          -105 callgsubr
          820 246 rmoveto
          -97 callsubr
        </CharString>
        <CharString name="Ugrave">
          70 -20 -66 callgsubr
          783 98 vstem
          -105 callgsubr
          337 321 -92 callsubr
        </CharString>
        <CharString name="Uhungarumlaut">
          70 -20 -66 callgsubr
          783 98 vstem
          -105 callgsubr
          769 141 -81 callgsubr
        </CharString>
        <CharString name="Umacron">
          9 callsubr
          339 123 hstem
          182 270 25 657 101 98 vstem
          -105 callgsubr
          294 417 -70 callgsubr
        </CharString>
        <CharString name="Uogonek">
          70 -10 callsubr
          419 -66 callgsubr
          168 244 371 98 vstem
          182 559 rmoveto
          -532 422 -47 194 31 30 2 3 29 vhcurveto
          -100 -59 -168 -119 -159 vvcurveto
          -89 callgsubr
          105 111 124 174 142 hvcurveto
          115 87 69 146 214 vvcurveto
          923 146 78 -400 -78 156 -909 vlineto
          -416 -259 -54 -164 -235 -125 107 345 vhcurveto
          927 146 78 -552 -78 137 vlineto
          endchar
        </CharString>
        <CharString name="Uring">
          70 -20 93 1379 78 96 369 -317 264 hstemhm
          182 270 254 197 332 98 hintmask 11101110
          -105 callgsubr
          621 174 -37 callgsubr
          -112 93 -74 123 hvcurveto
          hintmask 11011110
          -27 callgsubr
          -75 -26 -59 -73 hvcurveto
          endchar
        </CharString>
        <CharString name="Utilde">
          70 -20 93 1379 78 161 -18 callgsubr
          182 270 -24 740 67 98 hintmask 11011010
          -105 callgsubr
          291 248 -48 callsubr
          hintmask 11100110
          -59 callgsubr
          hintmask 11010110
          -85 -96 98 -115 -77 callgsubr
          endchar
        </CharString>
        <CharString name="V">
          70 -8 callsubr
          16 -16 78 hstemhm
          -13 1568 hintmask 11010000
          761 -20 rmoveto
          85 hlineto
          555 1472 rlineto
          154 hlineto
          hintmask 10110000
          78 -450 -78 188 vlineto
          -416 -1135 -443 1135 rlineto
          193 78 -640 -78 134 hlineto
          endchar
        </CharString>
        <CharString name="W">
          751 -8 callsubr
          20 -20 78 -58 58 hstem
          -49 2342 vstem
          -96 callsubr
          endchar
        </CharString>
        <CharString name="Wacute">
          751 -8 callsubr
          20 -20 78 -58 58 hstem
          -49 2342 vstem
          -96 callsubr
          995 187 -103 callgsubr
        </CharString>
        <CharString name="Wcircumflex">
          751 -8 callsubr
          20 -20 78 -58 58 hstem
          -49 2342 vstem
          -96 callsubr
          756 158 -103 callsubr
        </CharString>
        <CharString name="Wdieresis">
          751 -8 callsubr
          78 169 247 hstemhm
          -49 2342 -1434 -18 callsubr
          hintmask 11110000
          -96 callsubr
          1300 247 rmoveto
          hintmask 11101100
          -97 callsubr
        </CharString>
        <CharString name="Wgrave">
          751 -8 callsubr
          20 -20 78 -58 58 hstem
          -49 2342 vstem
          -96 callsubr
          817 322 -92 callsubr
        </CharString>
        <CharString name="X">
          69 0 78 -34 33 1375 78 -78 79 hstemhm
          15 1508 -1506 467 hintmask 10100100
          17 hmoveto
          467 78 -183 hlineto
          406 548 364 -548 rlineto
          -182 -78 hlineto
          hintmask 10101000
          634 78 -136 hlineto
          -504 750 460 624 rlineto
          171 hlineto
          hintmask 01010100
          79 -450 -79 169 vlineto
          -402 -546 -366 546 rlineto
          185 hlineto
          hintmask 01101000
          78 -635 -78 146 vlineto
          494 -747 rlineto
          hintmask 10100100
          -468 -627 rlineto
          -170 hlineto
          endchar
        </CharString>
        <CharString name="Y">
          -94 callsubr
          endchar
        </CharString>
        <CharString name="Yacute">
          -94 callsubr
          hintmask 10110100
          231 1561 -103 callgsubr
        </CharString>
        <CharString name="Ycircumflex">
          -94 callsubr
          hintmask 10110100
          -8 1532 -103 callsubr
        </CharString>
        <CharString name="Ydieresis">
          70 -35 callsubr
          611 15 748 16 -16 78 169 247 hstemhm
          445 247 -46 269 -54 247 hintmask 1011000100000000
          448 hmoveto
          667 78 -199 574 hlineto
          457 800 rlineto
          151 hlineto
          hintmask 0110100100000000
          78 -442 -78 184 vlineto
          -406 -719 -409 719 rlineto
          203 78 -644 -78 125 hlineto
          512 -862 -1 -512 rlineto
          -198 hlineto
          hintmask 1011000100000000
          hintmask 0000011010000000
          536 1621 rmoveto
          -97 callsubr
        </CharString>
        <CharString name="Ygrave">
          -94 callsubr
          hintmask 10110100
          53 1696 -92 callsubr
        </CharString>
        <CharString name="Z">
          69 0 1530 hstem
          140 1273 vstem
          -88 callgsubr
          endchar
        </CharString>
        <CharString name="Zacute">
          69 0 1530 hstem
          140 1273 vstem
          -88 callgsubr
          558 1522 -103 callgsubr
        </CharString>
        <CharString name="Zcaron">
          69 0 1530 hstem
          140 1273 vstem
          -88 callgsubr
          664 1513 -97 callgsubr
        </CharString>
        <CharString name="Zdotaccent">
          69 0 1530 -10 callgsubr
          hstemhm
          140 1273 -739 262 hintmask 10100000
          -88 callgsubr
          hintmask 01010000
          664 1583 rmoveto
          73 59 58 -92 callgsubr
          -58 2 callgsubr
        </CharString>
        <CharString name="a">
          -60 callgsubr
          -54 callsubr
          312 -14 callgsubr
          hintmask 11110110
          92 282 rmoveto
          -186 163 -116 213 136 106 69 64 55 vhcurveto
          -83 29 79 -48 102 hhcurveto
          84 79 47 56 36 hvcurveto
          -52 43 rlineto
          -35 -26 -26 -15 -26 hhcurveto
          -28 -14 19 64 hvcurveto
          533 vlineto
          217 -141 128 -300 vhcurveto
          hintmask 11101110
          -150 -247 -78 -161 -89 62 -49 73 68 65 51 80 66 -53 40 -26 9 hvcurveto
          21 21 73 32 92 hhcurveto
          172 33 -94 -147 hvcurveto
          -238 vlineto
          47 -62 -92 36 -127 hhcurveto
          hintmask 11110110
          -206 -165 -104 -179 hvcurveto
          266 -6 rmoveto
          140 74 60 114 77 74 -34 -49 50 vhcurveto
          -200 vlineto
          -63 -50 -81 -52 -86 hhcurveto
          -86 -86 44 154 hvcurveto
          endchar
        </CharString>
        <CharString name="aacute">
          -60 callgsubr
          145 434 -54 callsubr
          45 439 -172 -14 callgsubr
          -107 callgsubr
          hintmask 0001001000000000
          150 908 -100 callgsubr
        </CharString>
        <CharString name="abreve">
          -60 callgsubr
          178 172 -54 callsubr
          -179 62 429 -14 callgsubr
          -159 62 -107 callgsubr
          hintmask 0001001001000000
          221 941 -95 callsubr
        </CharString>
        <CharString name="acircumflex">
          -60 callgsubr
          140 420 -54 callsubr
          -225 742 -205 -14 callgsubr
          -107 callgsubr
          hintmask 0001001000000000
          -120 903 -98 callgsubr
        </CharString>
        <CharString name="acute">
          1184 434 hstem
          528 439 vstem
          559 1184 -100 callgsubr
        </CharString>
        <CharString name="acute.cap">
          1660 -21 hstem
          525 1639 -103 callgsubr
        </CharString>
        <CharString name="adieresis">
          -60 callgsubr
          205 243 -54 callsubr
          -206 -17 callgsubr
          -185 -14 callgsubr
          hintmask 1110100011000000
          92 282 rmoveto
          -186 163 -116 213 136 106 69 64 55 vhcurveto
          -83 29 79 -48 102 hhcurveto
          84 79 47 56 36 hvcurveto
          -52 43 rlineto
          -35 -26 -26 -15 -26 hhcurveto
          -28 -14 19 64 hvcurveto
          533 vlineto
          217 -141 128 -300 vhcurveto
          hintmask 1110010011000000
          -150 -247 -78 -161 -89 62 -49 73 68 65 51 80 66 -53 40 -26 9 hvcurveto
          21 21 73 32 92 hhcurveto
          172 33 -94 -147 hvcurveto
          -238 vlineto
          47 -62 -92 36 -127 hhcurveto
          hintmask 1110100011000000
          -206 -165 -104 -179 hvcurveto
          266 -6 rmoveto
          140 74 60 114 77 74 -34 -49 50 vhcurveto
          -200 vlineto
          -63 -50 -81 -52 -86 hhcurveto
          -86 -86 44 154 hvcurveto
          hintmask 0001001100000000
          447 968 rmoveto
          -93 callsubr
          -456 hmoveto
          -93 callsubr
          endchar
        </CharString>
        <CharString name="ae">
          -1 callgsubr
          9 callgsubr
          107 76 428 267 hintmask 1001011011100000
          -73 callgsubr
          hintmask 1010010111100000
          -43 callgsubr
          hintmask 1001101011100000
          -38 callgsubr
          hintmask 0110011011100000
          -31 callsubr
          endchar
        </CharString>
        <CharString name="aeacute">
          -1 callgsubr
          145 434 9 callgsubr
          -12 439 -320 76 428 267 hintmask 1001010101011000
          -73 callgsubr
          hintmask 1010010011011000
          -43 callgsubr
          hintmask 1001100101011000
          -38 callgsubr
          hintmask 0110010101011000
          -31 callsubr
          hintmask 0000001000100000
          450 908 -100 callgsubr
        </CharString>
        <CharString name="agrave">
          -60 callgsubr
          145 434 -54 callsubr
          -196 439 69 -14 callgsubr
          -107 callgsubr
          hintmask 0001001000000000
          286 908 rmoveto
          -90 callsubr
        </CharString>
        <CharString name="amacron">
          -60 callgsubr
          252 123 -54 callsubr
          -171 657 -174 -14 callgsubr
          -107 callgsubr
          hintmask 0001001000000000
          -97 1015 -70 callgsubr
        </CharString>
        <CharString name="ampersand">
          239 -20 95 694 78 520 41 44 77 hstemhm
          144 242 -78 235 321 278 124 102 hintmask 11111011
          144 396 rmoveto
          -260 263 -156 333 148 128 49 89 102 vhcurveto
          -85 100 101 -53 117 hhcurveto
          131 88 50 61 49 hvcurveto
          -37 51 rlineto
          -4 -7 -31 -21 -37 hhcurveto
          -103 -99 65 125 -128 hvcurveto
          65 125 36 156 4 181 rrcurveto
          160 78 -434 -78 173 hlineto
          -154 -27 -131 -47 -105 vhcurveto
          -78 81 -89 100 -106 117 rrcurveto
          hintmask 11110111
          -166 177 -210 226 168 vvcurveto
          124 84 80 131 102 53 -27 -30 32 vhcurveto
          -48 -23 -33 -49 -55 vvcurveto
          -75 63 -63 75 76 64 63 75 10 -2 10 -2 9 vhcurveto
          147 -14 -166 85 -196 hhcurveto
          -210 -244 -113 -252 -120 69 -115 99 -121 hvcurveto
          hintmask 11111011
          -156 -51 -176 -132 -229 vvcurveto
          242 16 rmoveto
          151 78 114 74 59 vhcurveto
          52 -58 57 -60 59 -62 130 -140 109 -133 105 -102 rrcurveto
          -70 -81 -97 -36 -107 hhcurveto
          -242 -137 153 184 hvcurveto
          endchar
        </CharString>
        <CharString name="aogonek">
          -274 -10 callsubr
          419 98 398 89 396 78 -54 callsubr
          144 244 -76 -14 callgsubr
          hintmask 1111101000000000
          92 282 rmoveto
          -186 163 -116 213 136 106 69 64 55 vhcurveto
          21 -60 47 -42 63 -18 rrcurveto
          -143 -73 -177 -130 -142 vvcurveto
          -89 callgsubr
          111 150 125 136 73 hvcurveto
          -1 hlineto
          29 18 24 22 16 25 -52 43 rcurveline
          -35 -26 -26 -15 -26 hhcurveto
          hintmask 1111010110000000
          -28 -14 19 64 hvcurveto
          533 vlineto
          217 -141 128 -300 -150 -247 -78 -161 -89 62 -49 73 68 65 51 80 66 -53 40 -26 9 vhcurveto
          21 21 73 32 92 hhcurveto
          172 33 -94 -147 hvcurveto
          -238 vlineto
          47 -62 -92 36 -127 hhcurveto
          hintmask 1111101000000000
          -206 -165 -104 -179 hvcurveto
          266 -6 rmoveto
          140 74 60 114 77 74 -34 -49 50 vhcurveto
          -200 vlineto
          -63 -50 -81 -52 -86 hhcurveto
          -86 -86 44 154 hvcurveto
          endchar
        </CharString>
        <CharString name="approxequal">
          -273 172 170 -67 165 241 170 -67 165 hstemhm
          177 841 hintmask 00000000
          hintmask 00101000
          219 688 8 callgsubr
          hintmask 00011000
          -49 callgsubr
          hintmask 00101000
          -112 -123 98 -151 -77 callgsubr
          hintmask 00000000
          42 -539 8 callgsubr
          hintmask 10001000
          -49 callgsubr
          hintmask 01001000
          -112 -123 98 -151 -77 callgsubr
          endchar
        </CharString>
        <CharString name="aring">
          -60 callgsubr
          112 436 -54 callsubr
          14 253 45 -14 callgsubr
          -107 callgsubr
          hintmask 0001001000000000
          214 875 -77 callsubr
        </CharString>
        <CharString name="asciicircum">
          543 984 hstem
          341 1023 vstem
          341 543 rmoveto
          119 hlineto
          390 846 395 -846 rlineto
          119 hlineto
          -473 984 rlineto
          -75 hlineto
          endchar
        </CharString>
        <CharString name="asciitilde">
          -233 614 170 -67 165 hstemhm
          181 841 hintmask 00000000
          hintmask 10100000
          223 621 8 callgsubr
          hintmask 01100000
          -49 callgsubr
          hintmask 10100000
          -112 -123 98 -151 -77 callgsubr
          endchar
        </CharString>
        <CharString name="asterisk">
          -276 837 867 hstem
          147 899 vstem
          372 843 rmoveto
          38 39 13 46 21 hvcurveto
          122 269 118 -260 rlineto
          -40 19 24 -34 56 hhcurveto
          49 50 34 69 25 -8 28 -24 20 hvcurveto
          -231 193 295 38 rlineto
          54 7 52 29 69 vvcurveto
          46 -41 53 -62 -17 -17 -5 -9 -16 vhcurveto
          -267 -168 69 301 rlineto
          3 13 2 11 13 vvcurveto
          47 -44 53 -58 -43 -57 -42 -59 -7 1 -7 2 -8 vhcurveto
          -1 1 62 -315 -249 164 rlineto
          16 -23 -19 7 -22 hhcurveto
          -52 -50 -41 -56 -39 27 -58 64 -9 hvcurveto
          305 -43 -220 -179 rlineto
          -30 -26 -15 -22 -35 vvcurveto
          -50 32 -53 62 vhcurveto
          endchar
        </CharString>
        <CharString name="at">
          916 -420 78 322 91 -89 141 821 96 331 82 hstemhm
          200 93 391 258 372 242 538 90 hintmask 1101111110000000
          200 445 rmoveto
          -668 594 -197 370 294 228 58 63 152 vhcurveto
          -31 77 rlineto
          -60 -147 -223 -60 -270 hhcurveto
          -395 -479 209 577 560 453 367 577 473 298 -221 -370 -335 -224 -374 -262 -37 -15 39 43 7 7 45 2 14 hvcurveto
          110 801 rlineto
          -240 hlineto
          -6 -39 rlineto
          35 -48 -66 24 -81 hhcurveto
          -262 -288 -223 -373 hvcurveto
          hintmask 1011111110000000
          -298 154 -164 161 135 106 58 68 77 vhcurveto
          hintmask 1101111110000000
          -95 18 84 -33 142 hhcurveto
          386 237 424 373 427 -378 249 -483 -542 -581 -342 -666 hvcurveto
          742 33 rmoveto
          197 90 269 235 65 49 -19 -30 36 vhcurveto
          -94 -661 rlineto
          hintmask 1011111110000000
          -59 -49 -65 -52 -79 hhcurveto
          -150 -38 217 138 hvcurveto
          endchar
        </CharString>
        <CharString name="atilde">
          -60 callgsubr
          200 180 -77 175 -54 callsubr
          -230 741 -199 -14 callgsubr
          hintmask 1110010011000000
          92 282 rmoveto
          -186 163 -116 213 136 106 69 64 55 vhcurveto
          -83 29 79 -48 102 hhcurveto
          84 79 47 56 36 hvcurveto
          -52 43 rlineto
          -35 -26 -26 -15 -26 hhcurveto
          -28 -14 19 64 hvcurveto
          533 vlineto
          217 -141 128 -300 vhcurveto
          hintmask 1110001011000000
          -150 -247 -78 -161 -89 62 -49 73 68 65 51 80 66 -53 40 -26 9 hvcurveto
          21 21 73 32 92 hhcurveto
          172 33 -94 -147 hvcurveto
          -238 vlineto
          47 -62 -92 36 -127 hhcurveto
          hintmask 1110010011000000
          -206 -165 -104 -179 hvcurveto
          266 -6 rmoveto
          140 74 60 114 77 74 -34 -49 50 vhcurveto
          -200 vlineto
          -63 -50 -81 -52 -86 hhcurveto
          -86 -86 44 154 hvcurveto
          hintmask 0000000000000000
          -110 977 -48 callsubr
          hintmask 0001000100000000
          -71 callsubr
          hintmask 0000100100000000
          -82 -93 98 -111 -77 callgsubr
          endchar
        </CharString>
        <CharString name="b">
          -104 -20 1704 hstem
          471 528 vstem
          61 hmoveto
          410 73 hlineto
          -75 callgsubr
          770 -410 -80 150 -1526 -150 vlineto
          410 102 rmoveto
          -78 callsubr
          endchar
        </CharString>
        <CharString name="backslash">
          6 callgsubr
          163 1683 rmoveto
          -157 hlineto
          855 -2237 rlineto
          158 hlineto
          endchar
        </CharString>
        <CharString name="bar">
          -957 -300 1986 hstem
          192 128 vstem
          192 -300 rmoveto
          128 1986 -128 hlineto
          endchar
        </CharString>
        <CharString name="braceleft">
          -445 -560 2324 hstem
          630 257 vstem
          415 -90 rmoveto
          -181 101 -229 371 -60 vhcurveto
          20 63 rlineto
          -217 49 -60 135 182 84 22 165 88 vvcurveto
          276 -153 93 -172 22 vhcurveto
          8 vlineto
          172 19 153 87 255 92 -22 185 92 vvcurveto
          182 60 135 217 49 vhcurveto
          -20 63 rlineto
          -371 -60 -101 -229 -181 -96 23 -192 -96 vvcurveto
          -144 -29 -101 -268 -30 vhcurveto
          -68 vlineto
          268 -30 29 -116 -159 -88 -23 -176 -88 vvcurveto
          endchar
        </CharString>
        <CharString name="braceright">
          -445 -560 2324 hstem
          137 257 vstem
          609 -90 rmoveto
          88 -23 176 88 vvcurveto
          159 29 116 268 30 vhcurveto
          68 vlineto
          -268 30 -29 101 144 96 23 192 96 vvcurveto
          181 -101 229 -371 60 vhcurveto
          -20 -63 rlineto
          217 -49 60 -135 -182 -92 -22 -185 -92 vvcurveto
          -255 153 -87 172 -19 vhcurveto
          -8 vlineto
          -172 -22 -153 -93 -276 -88 22 -165 -84 vvcurveto
          -182 -60 -135 -217 -49 vhcurveto
          20 -63 rlineto
          371 60 101 229 181 vvcurveto
          endchar
        </CharString>
        <CharString name="bracketleft">
          11 callgsubr
          341 203 vstem
          341 -560 rmoveto
          467 78 -264 2171 265 78 -468 hlineto
          endchar
        </CharString>
        <CharString name="bracketright">
          11 callgsubr
          480 203 vstem
          683 1767 rmoveto
          -468 -78 265 -2171 -264 -78 467 hlineto
          endchar
        </CharString>
        <CharString name="breve">
          1217 172 hstem
          355 62 528 62 vstem
          681 1217 -95 callsubr
        </CharString>
        <CharString name="breve.cap">
          -787 1647 173 180 -20 hstem
          333 1647 -95 callgsubr
        </CharString>
        <CharString name="brokenbar">
          -957 -300 1984 hstem
          194 128 vstem
          194 820 rmoveto
          128 864 -128 hlineto
          -2 -1984 rmoveto
          128 828 -128 hlineto
          endchar
        </CharString>
        <CharString name="bullet">
          -615 305 479 hstem
          188 478 vstem
          426 305 rmoveto
          137 103 104 134 136 -103 105 -137 -133 -105 -105 -136 -134 105 -104 133 hvcurveto
          endchar
        </CharString>
        <CharString name="c">
          -20 callsubr
          hstem
          67 276 386 268 vstem
          -99 callsubr
          endchar
        </CharString>
        <CharString name="cacute">
          -20 callsubr
          144 -2 callgsubr
          67 276 131 439 -184 268 hintmask 11010100
          -99 callsubr
          hintmask 00101000
          438 665 -100 callgsubr
        </CharString>
        <CharString name="caron">
          1184 420 hstem
          276 742 vstem
          651 1184 -91 callgsubr
        </CharString>
        <CharString name="caron.cap">
          -450 1651 -21 370 -20 hstem
          510 1630 -97 callgsubr
        </CharString>
        <CharString name="ccaron">
          -20 callsubr
          144 420 hstemhm
          67 276 -144 742 -212 268 hintmask 11010100
          -99 callsubr
          hintmask 00101000
          507 665 -91 callgsubr
        </CharString>
        <CharString name="ccedilla">
          -443 -19 callgsubr
          107 96 887 77 hstemhm
          67 276 327 177 -118 268 hintmask 11111100
          485 -5 rmoveto
          -50 -247 rlineto
          -86 callsubr
          21 109 rlineto
          -1 17 18 -1 18 hhcurveto
          183 129 92 72 56 hvcurveto
          -52 48 rlineto
          -70 -67 -92 -46 -135 hhcurveto
          -206 -103 170 268 279 86 170 202 91 60 -32 -14 20 hvcurveto
          hintmask 11111010
          -39 -18 -34 -38 -70 vvcurveto
          -76 63 -46 71 75 59 54 82 163 -213 72 -160 -314 -243 -194 -327 -289 172 -185 246 -50 vhcurveto
          endchar
        </CharString>
        <CharString name="ccircumflex">
          -20 callsubr
          139 420 hstemhm
          67 276 -139 742 -217 268 hintmask 11010100
          -99 callsubr
          hintmask 00101000
          168 660 -98 callgsubr
        </CharString>
        <CharString name="cdotaccent">
          -20 callsubr
          187 261 hstemhm
          67 276 102 262 22 268 hintmask 11010100
          -99 callsubr
          hintmask 00101000
          508 708 rmoveto
          73 59 57 -92 callgsubr
          -57 2 callgsubr
        </CharString>
        <CharString name="cedilla">
          -19 callgsubr
          hstem
          673 177 vstem
          493 17 rmoveto
          -55 -269 rlineto
          -86 callsubr
          27 141 rlineto
          endchar
        </CharString>
        <CharString name="cent">
          -272 -20 43 -43 96 879 85 -64 64 hstem
          163 276 386 268 vstem
          163 519 rmoveto
          -304 190 -189 267 -38 vhcurveto
          -18 -243 rlineto
          78 hlineto
          18 236 rlineto
          -1 9 9 0 10 hhcurveto
          183 129 92 72 56 hvcurveto
          -52 48 rlineto
          -70 -67 -92 -46 -135 hhcurveto
          -206 -103 170 268 279 86 162 202 91 62 -24 -14 20 hvcurveto
          -39 -18 -36 -38 -70 vvcurveto
          -76 63 -54 71 75 59 62 82 140 -158 73 -146 17 vhcurveto
          20 220 rlineto
          -79 hlineto
          -20 -215 rlineto
          -309 -4 -238 -194 -323 vvcurveto
          endchar
        </CharString>
        <CharString name="circumflex">
          1179 420 hstem
          276 742 vstem
          307 1179 -98 callgsubr
        </CharString>
        <CharString name="circumflex.cap">
          1631 -21 390 -20 hstem
          307 1610 -103 callsubr
        </CharString>
        <CharString name="colon">
          -786 -18 320 417 320 hstemhm
          182 319 hintmask 10100000
          182 141 rmoveto
          -88 callsubr
          0 vmoveto
          -88 callsubr
          hintmask 01100000
          737 vmoveto
          -88 callsubr
          endchar
        </CharString>
        <CharString name="comma">
          -786 -2 63 hstem
          184 329 vstem
          -40 callsubr
          endchar
        </CharString>
        <CharString name="commaaccent">
          -787 -52 callgsubr
          hstem
          187 309 vstem
          187 -245 -104 callsubr
        </CharString>
        <CharString name="copyright">
          774 -468 82 367 117 622 303 -102 119 377 84 hstemhm
          155 106 364 311 554 90 437 107 hintmask 1101111110000000
          155 515 rmoveto
          -545 440 -438 544 543 442 438 545 544 -442 442 -543 -544 -440 -442 -544 vhcurveto
          106 -2 rmoveto
          494 383 410 495 496 382 -410 -494 -496 -382 -403 -496 -495 -383 403 496 vhcurveto
          364 hmoveto
          -297 208 -235 353 232 117 136 102 38 vhcurveto
          -86 51 rlineto
          -88 -41 -105 -84 -117 hhcurveto
          -225 -63 220 195 228 90 180 189 hvcurveto
          hintmask 1110111110000000
          151 103 -104 -97 21 hvcurveto
          90 303 -90 hlineto
          -4 -30 -10 -28 -13 -20 rrcurveto
          hintmask 1101111110000000
          42 -44 -91 53 -142 hhcurveto
          -362 -199 -246 -281 hvcurveto
          endchar
        </CharString>
        <CharString name="currency">
          -101 198 135 535 136 hstem
          282 141 524 141 vstem
          208 212 rmoveto
          100 -100 154 153 rlineto
          -42 63 77 -25 82 hhcurveto
          81 76 24 41 63 hvcurveto
          155 -155 100 101 -151 151 rlineto
          50 67 30 84 90 vvcurveto
          89 -30 83 -50 67 vhcurveto
          152 152 -100 101 -155 -155 rlineto
          41 -63 -77 25 -81 hhcurveto
          -81 -76 -25 -41 -63 hvcurveto
          -154 155 -100 -101 151 -152 rlineto
          -49 -67 -30 -83 -89 vvcurveto
          -89 29 -82 48 -67 vhcurveto
          64 238 rmoveto
          147 116 120 145 146 117 -120 -147 -147 -117 -121 -146 -145 -116 121 147 vhcurveto
          endchar
        </CharString>
        <CharString name="d">
          -104 -8 callgsubr
          566 0 callsubr
          526 35 hintmask 10111100
          119 513 -57 callgsubr
          hintmask 01111100
          -104 408 78 -148 1606 -467 -78 207 -658 vlineto
          -86 callgsubr
          hintmask 10111100
          -55 callgsubr
          endchar
        </CharString>
        <CharString name="dagger">
          -272 1075 202 hstemhm
          502 202 hintmask 00000000
          hintmask 11000000
          504 -105 rmoveto
          1 1 rlineto
          -2 -8 -1 -8 -6 vvcurveto
          -60 57 -42 43 58 44 53 48 13 -4 11 -1 13 vhcurveto
          -58 1220 304 -53 -1 1 rlineto
          -2 8 8 -1 6 hhcurveto
          60 41 57 43 58 -52 44 -48 -13 -11 -2 -3 -13 hvcurveto
          -289 -60 58 350 rlineto
          3 12 callgsubr
          -57 -42 -60 -6 1 -8 2 -8 vhcurveto
          -1 2 54 -365 -290 59 rlineto
          3 -14 -11 2 -13 hhcurveto
          -47 -53 -44 -58 -43 42 -57 59 7 8 1 2 7 hvcurveto
          -1 -1 305 53 rlineto
          endchar
        </CharString>
        <CharString name="daggerdbl">
          -272 -234 1933 -1496 202 hstemhm
          501 203 hintmask 00000000
          hintmask 10100000
          230 204 rmoveto
          hintmask 01100000
          6 8 1 2 8 hvcurveto
          -1 -1 305 53 -52 -371 1 1 rlineto
          -3 -8 -1 -7 -7 vvcurveto
          -59 58 -42 43 58 44 53 47 13 -2 11 -4 14 vhcurveto
          -58 356 -6 callsubr
          58 -53 44 -47 -13 -11 -2 -3 -14 hvcurveto
          -290 -59 64 391 -64 391 -6 callsubr
          59 -53 44 -47 -13 -11 -3 -3 -14 hvcurveto
          -290 -58 58 356 rlineto
          4 12 callgsubr
          -58 -42 -59 -7 1 -8 3 -7 vhcurveto
          -1 1 52 -371 -290 58 rlineto
          4 -13 -11 2 -13 hhcurveto
          -48 -53 -44 -59 -43 42 -57 60 6 8 1 3 8 hvcurveto
          -1 -2 305 53 -55 -390 55 -389 -290 58 rlineto
          3 -13 -11 2 -13 hhcurveto
          -48 -53 -44 -58 -43 42 -57 60 hvcurveto
          endchar
        </CharString>
        <CharString name="dcaron">
          63 -8 callgsubr
          -1 665 -98 0 callsubr
          526 35 477 134 hintmask 00010001
          1305 1086 rmoveto
          56 -47 rlineto
          -80 callsubr
          hintmask 10101110
          -1186 -573 -57 callgsubr
          hintmask 01101110
          -104 408 78 -148 1606 -467 -78 207 -658 vlineto
          -86 callgsubr
          hintmask 10101110
          -55 callgsubr
          endchar
        </CharString>
        <CharString name="dcroat">
          -104 -8 callgsubr
          207 78 281 0 callsubr
          286 647 -407 35 hintmask 10111101
          119 513 -57 callgsubr
          hintmask 01111101
          -104 408 78 -148 1169 vlineto
          hintmask 01111110
          147 78 -147 359 -467 -78 hlineto
          hintmask 01111101
          207 -281 hlineto
          hintmask 01111110
          -240 -78 hlineto
          hintmask 10111101
          240 -299 hlineto
          -86 callgsubr
          -55 callgsubr
          endchar
        </CharString>
        <CharString name="degree">
          -441 1023 103 467 103 hstem
          169 139 412 139 vstem
          515 1023 rmoveto
          189 155 133 205 203 -158 132 -186 -184 -162 -132 -203 -205 162 -133 184 hvcurveto
          103 vmoveto
          -153 -54 130 105 108 54 124 153 152 53 -124 -108 -105 -53 -130 -152 hvcurveto
          endchar
        </CharString>
        <CharString name="dieresis">
          -450 1244 243 hstem
          158 -17 callgsubr
          vstem
          737 1244 rmoveto
          -93 callsubr
          -456 hmoveto
          -93 callsubr
          endchar
        </CharString>
        <CharString name="dieresis.cap">
          1699 247 hstem
          356 -18 callsubr
          vstem
          895 1699 rmoveto
          -97 callsubr
        </CharString>
        <CharString name="divide">
          67 546 100 hstem
          270 996 vstem
          767 836 rmoveto
          6 callsubr
          -72 55 -56 72 hvcurveto
          -497 -290 rmoveto
          1 callgsubr
          371 -423 rmoveto
          -72 55 -56 72 6 callsubr
          vhcurveto
          endchar
        </CharString>
        <CharString name="dollar">
          -103 -20 83 -42 -21 1290 100 -63 83 hstemhm
          177 89 -78 202 668 -21 callgsubr
          hintmask 01011010
          -59 callsubr
          52 -46 86 -43 105 -25 -12 -172 rcurveline
          79 hlineto
          11 158 29 -4 30 -2 31 -1 rlinecurve
          -10 -151 rlineto
          79 hlineto
          10 152 rlineto
          248 18 207 145 256 vvcurveto
          165 -94 107 -305 115 vhcurveto
          35 503 105 -45 79 -90 15 -138 rlinecurve
          hintmask 10101001
          96 372 -93 hlineto
          -25 callsubr
          -36 31 -58 29 -75 18 14 205 rcurveline
          -79 hlineto
          -14 -192 rlineto
          hintmask 10010101
          -28 4 -30 1 -32 1 13 186 rcurveline
          -79 hlineto
          -13 -189 rlineto
          -259 -21 -200 -137 -221 vvcurveto
          -185 81 -139 321 -124 vhcurveto
          -34 -485 -141 54 -99 114 -36 145 rlinecurve
          hintmask 01011001
          -103 hlineto
          511 449 rmoveto
          32 470 31 -1 30 -4 29 -6 rlinecurve
          -34 -497 -32 13 -29 13 -27 12 rlinecurve
          -77 36 rmoveto
          hintmask 10010110
          -181 90 -40 64 99 vvcurveto
          97 106 66 145 15 vhcurveto
          -7 -1251 rmoveto
          33 479 4 -2 4 -1 4 -1 rlinecurve
          76 -26 -31 -459 -31 1 -31 4 -28 5 rlinecurve
          169 -7 rmoveto
          30 425 rlineto
          186 -78 39 -68 -96 vvcurveto
          -108 -108 -62 -147 -13 vhcurveto
          endchar
        </CharString>
        <CharString name="dotaccent">
          -590 1227 261 hstem
          348 262 vstem
          478 1227 rmoveto
          73 59 57 -92 callgsubr
          -57 2 callgsubr
        </CharString>
        <CharString name="dotaccent.cap">
          -779 1700 262 hstem
          207 262 vstem
          337 1700 rmoveto
          73 59 58 -92 callgsubr
          -58 2 callgsubr
        </CharString>
        <CharString name="dotlessi">
          -41 callsubr
          hstem
          223 265 vstem
          61 hmoveto
          -13 callsubr
        </CharString>
        <CharString name="dotlessj">
          -786 -510 1533 hstem
          52 454 vstem
          241 -41 -34 callgsubr
        </CharString>
        <CharString name="e">
          -35 callgsubr
          -4 callgsubr
          -724 455 hintmask 11000000
          97 518 rmoveto
          -311 217 -227 344 169 156 85 110 89 vhcurveto
          -53 48 rlineto
          -100 -100 -119 -48 -111 hhcurveto
          hintmask 10100000
          -219 -97 187 252 hvcurveto
          30 vlineto
          hintmask 11000000
          724 hlineto
          308 -150 187 -312 -308 -230 -213 -308 vhcurveto
          281 108 rmoveto
          204 18 73 125 156 hhcurveto
          hintmask 10100000
          143 57 -116 -213 3 hvcurveto
          endchar
        </CharString>
        <CharString name="eacute">
          -35 callgsubr
          229 434 -4 callgsubr
          -724 455 -326 439 -76 callgsubr
          -295 558 -100 callgsubr
        </CharString>
        <CharString name="ebreve">
          -35 callgsubr
          262 172 -4 callgsubr
          -819 62 33 455 40 62 -104 callgsubr
          hintmask 01010100
          -224 591 -95 callsubr
        </CharString>
        <CharString name="ecaron">
          -35 callgsubr
          229 420 -4 callgsubr
          -870 742 -596 455 -104 callgsubr
          hintmask 01010000
          -226 558 -91 callgsubr
        </CharString>
        <CharString name="ecircumflex">
          -35 callgsubr
          224 420 -4 callgsubr
          -865 742 -601 455 -104 callgsubr
          hintmask 01010000
          -565 553 -98 callgsubr
        </CharString>
        <CharString name="edieresis">
          -35 callgsubr
          289 243 -4 callgsubr
          -846 247 -125 455 -121 247 -104 callgsubr
          hintmask 01010100
          2 618 rmoveto
          -93 callsubr
          -456 hmoveto
          -93 callsubr
          endchar
        </CharString>
        <CharString name="edotaccent">
          -35 callgsubr
          272 261 -4 callgsubr
          -724 455 -355 262 -76 callgsubr
          -225 601 rmoveto
          73 59 57 -92 callgsubr
          -57 2 callgsubr
        </CharString>
        <CharString name="egrave">
          -35 callgsubr
          229 434 -4 callgsubr
          -836 439 -327 455 -104 callgsubr
          hintmask 01010000
          -159 558 rmoveto
          -90 callsubr
        </CharString>
        <CharString name="eight">
          -103 -20 95 1394 81 hstemhm
          193 201 -176 226 553 194 -177 239 hintmask 11100100
          193 374 rmoveto
          -231 199 -163 336 306 219 223 229 213 -177 106 -183 89 vhcurveto
          hintmask 11011000
          148 60 150 118 186 vvcurveto
          189 -177 157 -298 vhcurveto
          -10 hlineto
          -207 -281 -146 -275 -176 120 -114 149 -91 hvcurveto
          hintmask 11101000
          -141 -68 -153 -122 -184 vvcurveto
          613 509 rmoveto
          hintmask 11011000
          -189 91 -173 94 147 vvcurveto
          189 147 65 127 134 145 -60 -223 -100 -24 -133 -147 -80 vhcurveto
          hintmask 11100100
          -432 -468 rmoveto
          154 76 85 89 63 vhcurveto
          43 -23 43 -22 43 -21 rrcurveto
          172 -87 154 -69 -137 vvcurveto
          -141 -96 -132 -190 -175 -159 119 211 vhcurveto
          endchar
        </CharString>
        <CharString name="ellipsis">
          580 -18 320 hstem
          501 364 319 364 vstem
          1548 141 rmoveto
          -88 callsubr
          -683 hmoveto
          -88 callsubr
          -683 hmoveto
          -88 callsubr
          endchar
        </CharString>
        <CharString name="emacron">
          -35 callgsubr
          336 123 -4 callgsubr
          -811 657 -570 455 -104 callgsubr
          hintmask 01010000
          -542 665 -70 callgsubr
        </CharString>
        <CharString name="emdash">
          582 546 100 hstem
          194 1662 vstem
          194 546 rmoveto
          1662 100 -1662 hlineto
          endchar
        </CharString>
        <CharString name="endash">
          -101 546 100 hstem
          186 996 vstem
          186 546 rmoveto
          1 callgsubr
          endchar
        </CharString>
        <CharString name="eng">
          -104 -510 1550 hstem
          479 452 vstem
          57 hmoveto
          604 78 -74 callsubr
          -753 vlineto
          -157 -7 -192 -184 -38 vhcurveto
          21 -82 rlineto
          205 12 224 136 330 vvcurveto
          1 724 rlineto
          282 -230 66 -139 -142 -118 -65 -80 -83 vhcurveto
          128 -423 -78 163 -32 callsubr
          endchar
        </CharString>
        <CharString name="eogonek">
          -275 -10 callsubr
          419 95 469 82 335 78 hstem
          290 84 69 244 127 267 vstem
          97 518 rmoveto
          -308 214 -230 338 20 20 1 3 20 vhcurveto
          -121 -73 -145 -119 -144 vvcurveto
          -89 callgsubr
          121 69 72 226 193 hvcurveto
          1 1 29 23 26 26 23 28 rlinecurve
          -51 48 rlineto
          -100 -100 -119 -48 -111 hhcurveto
          -212 -94 -9 callgsubr
          -302 -227 -216 -305 vhcurveto
          281 108 rmoveto
          206 18 70 129 150 hhcurveto
          136 59 -122 -213 3 hvcurveto
          endchar
        </CharString>
        <CharString name="equal">
          67 340 100 240 100 hstem
          270 996 vstem
          270 680 rmoveto
          1 callgsubr
          -440 vmoveto
          1 callgsubr
          endchar
        </CharString>
        <CharString name="eth">
          -107 -20 1771 hstemhm
          145 1072 -794 529 hintmask 11000000
          145 515 rmoveto
          -324 239 -211 296 291 231 164 416 14 vhcurveto
          12 354 -155 374 -304 218 202 176 rcurveline
          -60 69 -223 -193 -109 63 -124 44 -140 19 rlinecurve
          -20 -79 108 -20 102 -45 89 -63 rlinecurve
          -197 -171 61 -69 209 181 118 -108 88 -146 37 -174 rlinecurve
          33 -61 -88 17 -81 hhcurveto
          -295 -240 -209 -316 hvcurveto
          hintmask 10100000
          278 hmoveto
          252 57 188 200 231 41 -262 -188 -254 -72 -186 -200 -200 -57 196 254 vhcurveto
          endchar
        </CharString>
        <CharString name="exclam">
          -617 302 145 hstem
          265 322 vstem
          379 447 rmoveto
          94 hlineto
          111 1042 rlineto
          1 7 2 21 6 vvcurveto
          93 -76 69 -85 -85 -76 -69 -93 -6 2 -21 1 -7 vhcurveto
          -1 -1348 rmoveto
          -88 callsubr
          endchar
        </CharString>
        <CharString name="exclamdown">
          -617 1114 145 hstem
          265 322 vstem
          473 1114 rmoveto
          -94 hlineto
          -111 -1042 rlineto
          -1 -7 -2 -21 -6 vvcurveto
          -93 76 -69 85 85 76 69 93 6 -2 21 -1 7 vhcurveto
          1 1348 -16 callgsubr
        </CharString>
        <CharString name="f">
          -614 14 1700 hstem
          548 172 vstem
          -68 callgsubr
          endchar
        </CharString>
        <CharString name="ff">
          65 1023 272 hstemhm
          547 448 -447 172 27 86 137 25 261 212 hintmask 10111100
          125 hmoveto
          622 78 hlineto
          hintmask 11000100
          -200 867 448 -867 hlineto
          hintmask 10111100
          -162 -78 594 78 -172 867 222 78 -221 302 hlineto
          189 35 107 131 74 61 -34 -44 17 vhcurveto
          -50 -6 -56 -38 -33 callsubr
          -127 120 -194 vhcurveto
          hintmask 11000100
          -224 -177 -137 -287 hvcurveto
          -253 vlineto
          hintmask 10111100
          -447 272 hlineto
          189 33 107 123 59 49 -26 -32 14 vhcurveto
          -50 -7 -56 -37 -79 vvcurveto
          -70 58 -45 64 64 64 52 80 134 -116 109 -176 -227 -164 -137 -287 vhcurveto
          -223 -17 callsubr
        </CharString>
        <CharString name="fi">
          -99 -22 callsubr
          241 436 -79 79 hstemhm
          290 260 363 297 -265 265 hintmask 11011010
          128 hmoveto
          584 78 -162 867 395 -45 callsubr
          -78 589 78 -162 945 -659 193 hlineto
          329 93 76 147 73 93 -11 -65 54 vhcurveto
          hintmask 11101100
          -60 -14 -38 -62 -57 vvcurveto
          -77 73 -71 78 78 72 63 82 212 -258 79 -159 -261 -246 -137 -328 vhcurveto
          -212 -17 callsubr
        </CharString>
        <CharString name="five">
          -104 -20 80 794 117 344 215 hstem
          165 293 498 269 vstem
          165 278 rmoveto
          -185 226 -113 219 353 262 190 333 273 -185 195 -336 -115 -150 -43 -55 -82 vhcurveto
          37 442 rlineto
          493 hlineto
          110 42 -27 -77 9 hvcurveto
          6 -63 rlineto
          78 hlineto
          51 382 rlineto
          -877 hlineto
          -54 -769 rlineto
          60 121 114 33 139 hhcurveto
          192 138 -142 -240 -169 -59 -243 -297 -139 -62 29 46 -52 hvcurveto
          71 19 40 63 61 7 callgsubr
        </CharString>
        <CharString name="fl">
          65 -22 callsubr
          612 65 hstem
          292 260 459 265 vstem
          130 hmoveto
          594 78 -172 867 262 78 -261 193 hlineto
          329 63 90 168 96 77 -17 -20 54 vhcurveto
          -1520 -176 -78 589 78 -148 1606 -265 vlineto
          -90 -60 16 -86 hhcurveto
          -298 -185 -137 -328 hvcurveto
          -212 -17 callsubr
        </CharString>
        <CharString name="florin">
          -437 -560 2260 hstem
          -105 1240 vstem
          22 3 callgsubr
          194 224 142 138 371 17 hvcurveto
          44 996 rlineto
          222 hlineto
          4 78 rlineto
          -221 hlineto
          14 302 rlineto
          189 9 18 107 131 hhcurveto
          84 69 -34 -44 19 hvcurveto
          -50 -6 -56 -38 -33 callsubr
          -135 120 -206 -224 -158 -137 -287 -13 vhcurveto
          -12 -253 rlineto
          -162 hlineto
          -4 -78 rlineto
          162 hlineto
          -50 -1120 rlineto
          -189 -9 -3 -117 -131 hhcurveto
          -74 -61 34 44 -17 hvcurveto
          50 6 56 38 79 vvcurveto
          70 -58 47 -64 vhcurveto
          endchar
        </CharString>
        <CharString name="four">
          -103 0 78 321 86 1045 -20 hstem
          737 266 vstem
          40 399 rmoveto
          697 -321 -268 -78 763 78 -229 321 312 hlineto
          2 86 rlineto
          -314 1045 -187 hlineto
          -776 -1064 rlineto
          137 19 rmoveto
          560 782 rlineto
          -782 vlineto
          endchar
        </CharString>
        <CharString name="fraction">
          21 -21 1530 -20 hstem
          235 1237 vstem
          235 hmoveto
          -51 callsubr
        </CharString>
        <CharString name="g">
          -58 callsubr
          -42 callsubr
          420 244 -77 186 -136 122 hintmask 1111001010000000
          -41 callgsubr
          hintmask 1111010001000000
          -83 callgsubr
          hintmask 1111001010000000
          -87 callsubr
          hintmask 1111001000100000
          -78 callgsubr
          hintmask 1110100110000000
          -69 callsubr
          hintmask 1111001010000000
          -42 callgsubr
          hintmask 1111000110000000
          -26 callgsubr
          hintmask 1110110010000000
          -85 callgsubr
          hintmask 1111010001000000
          -67 callgsubr
          endchar
        </CharString>
        <CharString name="gbreve">
          -58 callsubr
          178 172 -42 callsubr
          -116 62 474 244 -190 62 51 186 -136 122 hintmask 1111000100100000
          -41 callgsubr
          hintmask 1111001000001000
          -83 callgsubr
          hintmask 1111000100100000
          -87 callsubr
          hintmask 1111000100000100
          -78 callgsubr
          hintmask 1110100010100000
          -69 callsubr
          hintmask 1111000100100000
          -42 callgsubr
          hintmask 1111000010100000
          -26 callgsubr
          hintmask 1110101000100000
          -85 callgsubr
          hintmask 1111001000001000
          -67 callgsubr
          hintmask 0000010001010000
          305 1501 -95 callsubr
        </CharString>
        <CharString name="gcircumflex">
          -58 callsubr
          140 420 -42 callsubr
          -162 742 -160 -96 callgsubr
          -36 1463 -98 callgsubr
        </CharString>
        <CharString name="gcommaaccent">
          -58 callsubr
          316 50 153 21 -42 callsubr
          40 309 71 244 -77 186 -136 122 hintmask 1111000010010000
          -41 callgsubr
          hintmask 1111000100001000
          -83 callgsubr
          hintmask 1111000010010000
          -87 callsubr
          hintmask 1111000010000100
          -78 callgsubr
          hintmask 1110100001010000
          -69 callsubr
          hintmask 1111000010010000
          -42 callgsubr
          hintmask 1111000001010000
          -26 callgsubr
          hintmask 1110100100010000
          -85 callgsubr
          hintmask 1111000100001000
          -67 callgsubr
          hintmask 0000011000100000
          444 1548 rmoveto
          98 -70 43 -85 vhcurveto
          -4 hlineto
          17 48 49 45 40 21 -48 60 rcurveline
          -111 -55 -97 -119 -96 vvcurveto
          -115 57 -71 100 96 56 54 87 vhcurveto
          endchar
        </CharString>
        <CharString name="gdotaccent">
          -58 callsubr
          188 261 -42 callsubr
          79 262 79 -96 callgsubr
          304 1511 rmoveto
          73 59 57 -92 callgsubr
          -57 2 callgsubr
        </CharString>
        <CharString name="germandbls">
          -103 -20 1704 hstem
          461 171 vstem
          47 hmoveto
          414 1187 hlineto
          268 69 160 159 117 102 -79 -200 vhcurveto
          -295 -276 -15 -239 vvcurveto
          -170 148 -85 130 -68 vhcurveto
          134 -70 116 -56 -96 vvcurveto
          -122 -99 -55 -116 -120 -101 111 76 -40 vhcurveto
          -46 -9 -48 -51 -4 -44 rrcurveto
          -85 20 140 -83 180 hhcurveto
          260 148 172 204 122 -48 91 -229 117 hvcurveto
          -72 37 -193 100 62 173 371 -28 344 vvcurveto
          161 -152 149 -291 -325 -195 -233 -346 vhcurveto
          -82 -178 -78 178 -867 -153 vlineto
          endchar
        </CharString>
        <CharString name="grave">
          1184 434 hstem
          412 439 vstem
          820 1184 rmoveto
          -90 callsubr
        </CharString>
        <CharString name="grave.cap">
          1672 -21 hstem
          472 1774 -92 callsubr
        </CharString>
        <CharString name="greater">
          66 30 1030 hstem
          343 819 vstem
          1162 582 rmoveto
          -819 478 rlineto
          -114 vlineto
          691 -401 -691 -391 rlineto
          -124 vlineto
          819 478 rlineto
          endchar
        </CharString>
        <CharString name="greaterequal">
          66 0 100 hstem
          374 821 vstem
          1195 800 rmoveto
          -819 427 rlineto
          -116 vlineto
          678 -350 -678 -348 rlineto
          -106 vlineto
          819 419 rlineto
          -626 vmoveto
          -821 -100 821 hlineto
          endchar
        </CharString>
        <CharString name="guillemotleft">
          236 41 915 hstemhm
          217 640 -9 640 hintmask 11000000
          217 459 -80 callgsubr
          hintmask 10100000
          631 -79 -80 callgsubr
          endchar
        </CharString>
        <CharString name="guillemotright">
          231 41 915 hstemhm
          217 640 -14 640 hintmask 11000000
          857 538 -72 callgsubr
          -23 callsubr
          626 79 -72 callgsubr
          hintmask 10100000
          -23 callsubr
          endchar
        </CharString>
        <CharString name="guilsinglleft">
          10 callgsubr
          277 459 -80 callgsubr
          endchar
        </CharString>
        <CharString name="guilsinglright">
          10 callgsubr
          917 538 -72 callgsubr
          -23 callsubr
          endchar
        </CharString>
        <CharString name="h">
          -106 0 -28 callsubr
          95 566 78 hstem
          428 49 453 260 vstem
          -79 callsubr
          785 -432 -78 172 -1528 -162 vlineto
          endchar
        </CharString>
        <CharString name="hbar">
          -106 0 -28 callsubr
          95 150 77 339 78 hstemhm
          45 647 -264 49 453 260 hintmask 11110110
          -79 callsubr
          291 vlineto
          hintmask 11111010
          215 77 hlineto
          hintmask 11110110
          -215 417 hlineto
          hintmask 11111010
          -432 -78 172 -339 -172 -77 172 -1112 -162 hlineto
          endchar
        </CharString>
        <CharString name="hcircumflex">
          -106 0 -28 callsubr
          95 566 78 hstem
          428 49 453 260 vstem
          -79 callsubr
          785 -432 -78 172 -1528 -162 vlineto
          390 1532 -103 callsubr
        </CharString>
        <CharString name="hungarumlaut">
          -88 1175 465 hstem
          536 795 vstem
          941 1182 -82 callsubr
        </CharString>
        <CharString name="hungarumlaut.cap">
          -599 1609 -21 hstem
          488 1594 -81 callgsubr
        </CharString>
        <CharString name="hyphen">
          -23 callgsubr
        </CharString>
        <CharString name="i">
          -41 callsubr
          hstem
          223 265 vstem
          355 1227 -61 callsubr
          -294 -1227 -16 callsubr
        </CharString>
        <CharString name="iacute">
          -41 callsubr
          -15 callgsubr
          223 265 -241 439 hintmask 11010000
          61 hmoveto
          -84 callgsubr
          hintmask 00101000
          217 1106 -100 callgsubr
        </CharString>
        <CharString name="ibreve">
          -41 callsubr
          194 172 hstemhm
          15 62 146 265 117 62 hintmask 11001000
          61 hmoveto
          -84 callgsubr
          hintmask 00110100
          280 1139 -95 callsubr
        </CharString>
        <CharString name="icircumflex">
          -41 callsubr
          156 420 hstemhm
          -23 742 -496 265 hintmask 11001000
          61 hmoveto
          -84 callgsubr
          hintmask 00110000
          -53 1101 -98 callgsubr
        </CharString>
        <CharString name="idieresis">
          -41 callsubr
          221 243 hstemhm
          47 247 -71 265 -79 247 hintmask 00110100
          532 1244 rmoveto
          -93 callsubr
          -362 hmoveto
          -93 callsubr
          hintmask 11001000
          -109 -1244 -16 callsubr
        </CharString>
        <CharString name="igrave">
          -41 callsubr
          -15 callgsubr
          6 439 -222 265 hintmask 11001000
          61 hmoveto
          -84 callgsubr
          hintmask 00110000
          353 1106 rmoveto
          -90 callsubr
        </CharString>
        <CharString name="ij">
          -103 -22 callsubr
          0 204 hstemhm
          223 265 258 443 hintmask 11010000
          355 1227 -61 callsubr
          -294 -1227 rmoveto
          -84 callgsubr
          hintmask 00101000
          990 1149 -61 callsubr
          -135 -1220 rmoveto
          -366 -20 -124 -150 -1 vhcurveto
          20 -76 rlineto
          193 222 101 414 hvcurveto
          1068 -12 callsubr
        </CharString>
        <CharString name="imacron">
          -41 callsubr
          268 123 hstemhm
          23 657 -457 265 hintmask 11001000
          61 hmoveto
          -84 callgsubr
          hintmask 00110000
          -38 1213 -70 callgsubr
        </CharString>
        <CharString name="infinity">
          186 778 hstem
          222 1343 vstem
          539 186 rmoveto
          169 106 124 107 53 hvcurveto
          -123 78 99 -104 147 hhcurveto
          223 151 189 216 231 -144 136 -170 -183 -105 -147 -128 -46 hvcurveto
          150 -76 -89 127 -170 hhcurveto
          -195 -165 -155 -222 -253 149 -148 168 hvcurveto
          22 142 rmoveto
          -152 -86 123 128 165 93 83 103 106 71 -94 -146 76 hvcurveto
          50 -96 rlineto
          -83 -52 -58 -80 -151 hhcurveto
          400 270 rmoveto
          151 61 106 68 108 hhcurveto
          146 81 -93 -144 -123 -75 -128 -140 -122 -88 122 147 -77 hvcurveto
          endchar
        </CharString>
        <CharString name="integral">
          -271 -560 2260 hstem
          271 655 vstem
          149 3 callgsubr
          178 228 169 130 424 hvcurveto
          10 1241 rlineto
          295 45 91 119 64 31 -39 -44 17 vhcurveto
          -25 -3 -59 -36 -33 callsubr
          -127 120 -175 -231 -169 -124 -390 vhcurveto
          -10 -1241 rlineto
          -358 -41 -68 -116 -63 -45 37 44 -17 vhcurveto
          50 6 40 47 67 vvcurveto
          70 -58 47 -64 vhcurveto
          endchar
        </CharString>
        <CharString name="iogonek">
          -786 7 callsubr
          867 78 hstemhm
          34 244 -55 265 hintmask 11110000
          355 1227 -61 callsubr
          -294 -1227 rmoveto
          266 hlineto
          -131 -70 -162 -36 callgsubr
          93 113 124 81 hvcurveto
          155 78 -139 hlineto
          -11 9 rlineto
          hintmask 11101000
          -12 -7 rlineto
          943 -413 -78 148 -32 callsubr
          endchar
        </CharString>
        <CharString name="itilde">
          -41 callsubr
          216 0 callgsubr
          -6 681 -452 265 hintmask 00000000
          hintmask 00101000
          40 1253 -48 callsubr
          hintmask 00011000
          70 80 -103 82 hhcurveto
          135 82 141 95 44 hvcurveto
          -47 31 rlineto
          -46 -33 -37 -41 -82 hhcurveto
          hintmask 00101000
          -64 -75 98 -87 -77 callgsubr
          hintmask 11000100
          67 -1286 -16 callsubr
        </CharString>
        <CharString name="j">
          -786 1023 204 hstem
          63 443 vstem
          368 1227 -61 callsubr
          -135 -1220 rmoveto
          -366 -20 -124 -150 -1 vhcurveto
          20 -76 rlineto
          193 222 101 414 hvcurveto
          1068 -12 callsubr
        </CharString>
        <CharString name="jcircumflex">
          -786 -510 1533 161 420 hstemhm
          18 702 -668 454 hintmask 01100000
          49 1184 rmoveto
          324 204 314 -204 33 31 -231 318 rlineto
          27 -19 -44 44 -53 hhcurveto
          -49 -35 -30 -34 -25 hvcurveto
          -246 -323 rlineto
          hintmask 10010000
          223 -1258 -34 callgsubr
        </CharString>
        <CharString name="k">
          -102 0 -1 callsubr
          -62 callsubr
          endchar
        </CharString>
        <CharString name="kcommaaccent">
          -102 -52 callgsubr
          336 -1 callsubr
          82 309 -62 callsubr
          495 -323 -104 callsubr
        </CharString>
        <CharString name="kgreenlandic">
          -102 0 78 -61 60 869 77 hstem
          212 260 vstem
          59 hmoveto
          561 78 -148 317 hlineto
          128 111 301 -428 rlineto
          -139 -78 570 78 -133 hlineto
          -420 584 328 284 rlineto
          109 77 -417 -77 179 hlineto
          -506 -448 rlineto
          525 -413 -78 153 -867 -153 vlineto
          endchar
        </CharString>
        <CharString name="l">
          -786 0 78 1527 79 hstem
          216 265 vstem
          60 hmoveto
          -51 callgsubr
          endchar
        </CharString>
        <CharString name="lacute">
          -786 0 78 1347 79 hstem
          216 265 vstem
          54 hmoveto
          589 78 -162 1426 -427 -79 162 -1347 -162 hlineto
          90 1560 -103 callgsubr
        </CharString>
        <CharString name="lcaron">
          -613 0 78 961 665 -99 79 hstemhm
          216 265 260 134 hintmask 01001000
          665 1039 rmoveto
          -80 callsubr
          hintmask 10110000
          -549 -1086 rmoveto
          -51 callgsubr
          endchar
        </CharString>
        <CharString name="lcommaaccent">
          -786 -52 callgsubr
          336 78 1527 79 hstemhm
          216 265 -264 309 hintmask 00111000
          60 hmoveto
          -51 callgsubr
          hintmask 11000100
          157 -323 -104 callsubr
        </CharString>
        <CharString name="ldot">
          -613 0 78 657 262 608 79 hstemhm
          216 265 -10 callgsubr
          hintmask 01001000
          781 735 rmoveto
          73 59 58 -92 callgsubr
          -58 72 hvcurveto
          hintmask 10110000
          -721 -735 rmoveto
          -51 callgsubr
          endchar
        </CharString>
        <CharString name="less">
          66 30 1030 hstem
          340 819 vstem
          340 508 rmoveto
          819 -478 rlineto
          124 vlineto
          -691 391 691 401 rlineto
          114 vlineto
          -819 -478 rlineto
          endchar
        </CharString>
        <CharString name="lessequal">
          66 0 100 hstem
          340 821 vstem
          340 726 rmoveto
          819 -419 rlineto
          106 vlineto
          -678 348 678 350 rlineto
          116 vlineto
          -819 -427 rlineto
          -800 vmoveto
          821 100 -821 hlineto
          endchar
        </CharString>
        <CharString name="logicalnot">
          67 545 100 hstem
          1075 104 vstem
          310 545 rmoveto
          765 -318 104 418 -869 hlineto
          endchar
        </CharString>
        <CharString name="lozenge">
          -101 -1 1648 hstem
          171 1025 vstem
          646 -1 rmoveto
          75 hlineto
          475 824 -475 824 rlineto
          -75 hlineto
          -475 -824 rlineto
          511 -720 rmoveto
          -401 720 400 706 405 -706 rlineto
          endchar
        </CharString>
        <CharString name="lslash">
          -786 0 78 593 400 534 79 hstemhm
          27 662 -473 265 hintmask 11101000
          60 hmoveto
          589 78 -168 811 hlineto
          hintmask 11110000
          208 110 -44 72 rlineto
          hintmask 11101000
          -164 -87 rlineto
          700 -428 -79 163 -761 vlineto
          hintmask 11110000
          -189 -99 40 -74 rlineto
          hintmask 11101000
          149 78 rlineto
          -671 -156 vlineto
          endchar
        </CharString>
        <CharString name="m">
          573 0 1040 hstemhm
          482 420 -257 95 585 269 hintmask 10110000
          60 hmoveto
          585 78 hlineto
          hintmask 11010000
          -21 callsubr
          hintmask 10110000
          -63 callsubr
          hintmask 11010000
          -13 callgsubr
          endchar
        </CharString>
        <CharString name="macron">
          1291 123 hstem
          505 657 vstem
          505 1291 -70 callgsubr
        </CharString>
        <CharString name="macron.cap">
          -787 1870 123 hstem
          13 657 vstem
          13 1870 -70 callgsubr
        </CharString>
        <CharString name="minus">
          -23 callgsubr
        </CharString>
        <CharString name="mu">
          -103 -539 -21 540 96 947 -20 hstem
          184 260 382 258 vstem
          294 91 rmoveto
          -91 82 108 -20 68 hhcurveto
          97 104 45 71 77 hvcurveto
          -83 15 56 -33 79 hhcurveto
          79 118 34 51 89 hvcurveto
          -23 62 rlineto
          -5 -14 -22 -9 -23 hhcurveto
          -47 -53 36 171 hvcurveto
          703 -258 -830 vlineto
          -73 -64 -77 -44 -71 hhcurveto
          -117 -53 79 142 hvcurveto
          726 -260 -1464 vlineto
          -84 73 -35 61 76 81 93 80 -30 vhcurveto
          -72 169 -50 175 -29 134 rrcurveto
          endchar
        </CharString>
        <CharString name="multiply">
          67 156 775 hstem
          381 775 vstem
          381 228 rmoveto
          70 -72 317 317 318 -317 70 72 -317 316 317 316 -71 71 -317 -316 -316 316 -71 -71 316 -316 rlineto
          endchar
        </CharString>
        <CharString name="n">
          -104 0 1040 hstemhm
          479 452 -270 88 hintmask 10100000
          -11 callgsubr
          hintmask 11000000
          -74 callsubr
          -634 vlineto
          hintmask 10100000
          -64 callgsubr
          hintmask 11000000
          -67 callsubr
          endchar
        </CharString>
        <CharString name="nacute">
          -104 0 1040 144 -2 callgsubr
          479 452 -325 439 -384 88 hintmask 10001000
          -11 callgsubr
          hintmask 10100000
          -74 callsubr
          -634 vlineto
          hintmask 10001000
          -64 callgsubr
          hintmask 10100000
          -67 callsubr
          hintmask 01010000
          580 1106 -100 callgsubr
        </CharString>
        <CharString name="nbspace">
          -787 endchar
        </CharString>
        <CharString name="ncaron">
          -104 0 1040 144 420 hstemhm
          331 742 -594 452 -270 88 hintmask 10001000
          -11 callgsubr
          hintmask 10010000
          -74 callsubr
          -634 vlineto
          hintmask 10001000
          -64 callgsubr
          hintmask 10010000
          -67 callsubr
          hintmask 01100000
          649 1106 -91 callgsubr
        </CharString>
        <CharString name="ncommaaccent">
          -104 -52 callgsubr
          336 1040 hstemhm
          479 452 -383 309 -196 88 hintmask 00100100
          -11 callgsubr
          hintmask 00110000
          -74 callsubr
          -634 vlineto
          hintmask 00100100
          -64 callgsubr
          hintmask 00110000
          -67 callsubr
          hintmask 11001000
          491 -323 -104 callsubr
        </CharString>
        <CharString name="nine">
          -104 -20 71 -71 370 199 100 818 83 hstemhm
          115 264 -163 274 499 278 hintmask 10110110
          216 191 rmoveto
          -123 10 146 -88 214 hhcurveto
          448 233 413 420 465 -248 272 -348 hvcurveto
          hintmask 10111010
          -300 -256 -230 -281 -352 244 -138 247 166 136 83 94 81 hvcurveto
          -404 -8 -131 -271 -249 hhcurveto
          -91 -46 21 27 -30 hvcurveto
          hintmask 01110110
          35 22 21 38 48 vvcurveto
          75 -53 68 -85 -86 -50 -61 -85 vhcurveto
          438 445 rmoveto
          hintmask 10111010
          -193 -82 171 250 240 110 157 182 214 96 -257 -356 8 hvcurveto
          -124 -77 -122 -81 -136 hhcurveto
          -296 -569 rmoveto
          5 hlineto
          -2 -2 rlineto
          endchar
        </CharString>
        <CharString name="notequal">
          67 340 100 240 100 248 -20 hstemhm
          270 996 -845 696 hintmask 11101000
          421 58 rmoveto
          79 -52 201 334 rlineto
          hintmask 11110000
          565 100 -504 hlineto
          145 240 rlineto
          359 100 -299 hlineto
          hintmask 11101000
          150 248 -79 52 -181 -300 rlineto
          hintmask 11110000
          -587 -100 526 hlineto
          -145 -240 rlineto
          -381 -100 321 hlineto
          endchar
        </CharString>
        <CharString name="ntilde">
          -104 0 1040 199 0 callgsubr
          331 741 -593 452 -270 88 hintmask 10000100
          -11 callgsubr
          hintmask 10001000
          -74 callsubr
          -634 vlineto
          hintmask 10000100
          -64 callgsubr
          hintmask 10001000
          -67 callsubr
          hintmask 00000000
          320 1175 -48 callsubr
          hintmask 01010000
          -71 callsubr
          hintmask 00110000
          -82 -93 98 -111 -77 callgsubr
          endchar
        </CharString>
        <CharString name="numbersign">
          392 118 392 118 hstem
          201 1305 vstem
          335 -69 rmoveto
          134 -33 132 494 rlineto
          305 hlineto
          -123 -461 134 -33 132 494 rlineto
          387 118 -355 hlineto
          105 392 rlineto
          320 118 -289 3 callsubr
          -305 3 callsubr
          -355 -118 324 hlineto
          -105 -392 rlineto
          -289 -118 257 hlineto
          175 118 rmoveto
          105 392 rlineto
          305 hlineto
          -105 -392 rlineto
          endchar
        </CharString>
        <CharString name="o">
          -47 callgsubr
          hstem
          72 278 494 278 vstem
          -106 callsubr
          endchar
        </CharString>
        <CharString name="oacute">
          -47 callgsubr
          144 434 -11 callsubr
          146 439 -91 278 hintmask 11010100
          -106 callsubr
          hintmask 00101000
          -70 1121 -100 callgsubr
        </CharString>
        <CharString name="obreve">
          -47 callgsubr
          177 172 -11 callsubr
          -78 62 510 278 -260 62 hintmask 11010100
          -106 callsubr
          hintmask 00101010
          1 1154 -95 callsubr
        </CharString>
        <CharString name="ocircumflex">
          -47 callgsubr
          139 420 -11 callsubr
          -124 742 -124 278 hintmask 11010100
          -106 callsubr
          hintmask 00101000
          -340 1116 -98 callgsubr
        </CharString>
        <CharString name="odieresis">
          -47 callgsubr
          204 243 -11 callsubr
          -105 -17 callgsubr
          -104 278 hintmask 11010010
          -106 callsubr
          hintmask 00101100
          227 1181 rmoveto
          -93 callsubr
          -456 hmoveto
          -93 callsubr
          endchar
        </CharString>
        <CharString name="oe">
          409 -20 83 -83 95 469 82 329 84 -11 callsubr
          494 259 440 267 hintmask 00000000
          hintmask 10111110
          72 515 rmoveto
          -324 230 -211 296 156 134 68 118 91 vhcurveto
          -116 92 137 -70 170 hhcurveto
          169 155 85 110 89 hvcurveto
          -53 48 rlineto
          hintmask 01111110
          -100 -101 -115 -48 -114 hhcurveto
          -205 -100 -9 callgsubr
          -153 -133 -68 -114 -91 vhcurveto
          116 -91 -134 66 -155 hhcurveto
          hintmask 10111110
          -295 -231 -208 -316 hvcurveto
          1035 111 rmoveto
          204 17 67 125 144 hhcurveto
          143 62 -116 -213 3 hvcurveto
          -945 -563 rmoveto
          -200 -48 198 254 252 48 188 200 200 46 -188 -252 -254 -46 -198 -200 hvcurveto
          endchar
        </CharString>
        <CharString name="ogonek">
          -10 callsubr
          hstem
          452 244 vstem
          452 -352 rmoveto
          -89 callgsubr
          121 69 72 226 193 hvcurveto
          29 25 -77 -20 -2 2 -14 13 rcurveline
          -113 -82 rlineto
          -118 -55 -244 -146 -186 vvcurveto
          endchar
        </CharString>
        <CharString name="ograve">
          -47 callgsubr
          144 434 -11 callsubr
          -95 439 150 278 hintmask 11010100
          -106 callsubr
          hintmask 00101000
          66 1121 rmoveto
          -90 callsubr
        </CharString>
        <CharString name="ohungarumlaut">
          -47 callgsubr
          135 465 -11 callsubr
          -13 795 -288 278 hintmask 11010100
          -106 callsubr
          hintmask 00101000
          145 1119 -82 callsubr
        </CharString>
        <CharString name="omacron">
          -47 callgsubr
          251 123 -11 callsubr
          -70 657 -93 278 hintmask 11010100
          -106 callsubr
          hintmask 00101000
          -317 1228 -70 callgsubr
        </CharString>
        <CharString name="one">
          -445 0 78 hstem
          382 266 vstem
          204 hmoveto
          623 78 -179 1476 hlineto
          -438 -47 rlineto
          -77 vlineto
          172 16 rlineto
          -1368 -178 vlineto
          endchar
        </CharString>
        <CharString name="onehalf">
          -1 139 -117 -21 489 167 13 61 101 59 596 60 -16 10 callsubr
          -1145 186 466 181 180 175 -16 52 hintmask 0000110010000000
          213 831 -46 callgsubr
          hintmask 1011000001010000
          776 -891 -7 callsubr
          hintmask 1011000001100000
          -57 callsubr
          hintmask 0100001100000000
          -750 -54 rmoveto
          -51 callsubr
        </CharString>
        <CharString name="onequarter">
          5 callsubr
          111 59 596 60 -15 10 callsubr
          -1127 186 683 187 hintmask 1011000001000000
          -47 callsubr
          hintmask 0000110010000000
          -987 592 -46 callgsubr
          hintmask 0100001100000000
          8 -889 rmoveto
          -51 callsubr
        </CharString>
        <CharString name="onesuperior">
          -615 963 59 596 60 hstem
          323 186 vstem
          205 963 -46 callgsubr
          endchar
        </CharString>
        <CharString name="ordfeminine">
          -441 1040 69 -69 72 222 68 200 23 10 61 hstemhm
          203 189 -166 204 203 185 -183 47 hintmask 0111101100000000
          427 1040 rmoveto
          106 75 37 37 41 hvcurveto
          -46 22 51 -28 65 hhcurveto
          60 60 29 34 27 hvcurveto
          -40 34 rlineto
          -20 -17 -13 -5 -18 hhcurveto
          -18 -10 11 38 hvcurveto
          326 vlineto
          130 -100 79 -213 -108 -171 -52 -101 -53 47 -35 55 51 51 36 56 36 -27 23 -26 11 vhcurveto
          13 34 35 5 30 hhcurveto
          131 26 -52 -81 hvcurveto
          -141 vlineto
          24 -45 -63 17 -80 hhcurveto
          hintmask 1011110010000000
          -132 -110 -73 -102 -109 97 -78 127 hvcurveto
          75 69 rmoveto
          -50 -60 36 78 77 46 34 67 49 47 -23 -29 34 hvcurveto
          -96 vlineto
          -42 -33 -47 -35 -53 hhcurveto
          endchar
        </CharString>
        <CharString name="ordmasculine">
          -441 1040 62 531 63 hstem
          151 211 302 212 vstem
          514 1040 rmoveto
          210 152 135 197 191 -153 133 -209 -205 -158 -133 -191 -197 158 -135 205 hvcurveto
          62 vmoveto
          -122 -30 123 147 145 30 116 122 122 28 -116 -145 -147 -28 -123 -122 hvcurveto
          endchar
        </CharString>
        <CharString name="oslash">
          -47 callgsubr
          -1 -20 hstemhm
          61 1053 -1042 278 494 278 hintmask 10110000
          61 66 rmoveto
          65 -63 109 112 rlineto
          -86 94 126 -49 142 hhcurveto
          hintmask 10101100
          304 221 211 324 142 -45 121 -78 90 hvcurveto
          hintmask 10110000
          115 108 -74 63 -108 -107 rlineto
          hintmask 11001100
          69 -89 -116 39 -130 hhcurveto
          -295 -230 -209 -316 -134 39 -114 66 -88 hvcurveto
          hintmask 10110000
          184 156 rmoveto
          hintmask 11001100
          -8 55 -3 60 65 vvcurveto
          252 47 189 200 106 64 -54 -88 35 vhcurveto
          -243 -271 rlineto
          -177 -305 rmoveto
          226 247 221 231 rlineto
          11 -59 4 -69 -73 vvcurveto
          -254 -47 -198 -200 -117 -65 68 107 -33 vhcurveto
          endchar
        </CharString>
        <CharString name="otilde">
          -47 callgsubr
          199 0 callgsubr
          72 278 -129 741 -118 278 hintmask 11001010
          -106 callsubr
          hintmask 00000000
          -330 1190 -48 callsubr
          hintmask 00100100
          -71 callsubr
          hintmask 00010100
          -82 -93 98 -111 -77 callgsubr
          endchar
        </CharString>
        <CharString name="p">
          -104 -560 1600 hstem
          470 528 vstem
          -76 callsubr
          endchar
        </CharString>
        <CharString name="paragraph">
          1606 78 hstemhm
          768 36 -6 159 232 159 hintmask 10110000
          798 -302 rmoveto
          160 1908 232 hlineto
          -1 -1908 rlineto
          160 1908 171 78 hlineto
          hintmask 11010000
          -716 hlineto
          -334 -250 -171 -337 hvcurveto
          hintmask 10110000
          -305 214 -203 364 -2 vhcurveto
          endchar
        </CharString>
        <CharString name="parenleft">
          -445 -539 -21 hstem
          276 235 vstem
          276 601 rmoveto
          -567 336 -418 363 -176 vhcurveto
          48 57 rlineto
          -393 250 -119 443 411 vvcurveto
          454 119 378 393 276 vhcurveto
          -48 56 rlineto
          -363 -202 -336 -321 -641 vvcurveto
          endchar
        </CharString>
        <CharString name="parenright">
          -445 1744 21 hstem
          513 235 vstem
          748 604 rmoveto
          567 -336 418 -363 176 vhcurveto
          -48 -57 rlineto
          393 -250 119 -443 -411 vvcurveto
          -454 -119 -378 -393 -276 vhcurveto
          48 -56 rlineto
          363 202 336 321 641 vvcurveto
          endchar
        </CharString>
        <CharString name="partialdiff">
          -106 -20 91 804 87 159 429 -78 78 hstemhm
          144 267 -69 269 371 230 hintmask 11101010
          144 389 rmoveto
          -262 173 -147 211 364 320 296 627 285 -128 362 -372 vhcurveto
          hintmask 11100110
          -248 -122 -186 -109 -75 59 -59 75 75 60 59 75 59 -37 49 -52 19 hvcurveto
          hintmask 11011010
          46 26 55 44 112 hhcurveto
          218 49 -258 -229 -43 -2 -46 -2 -48 hvcurveto
          74 -69 -133 40 -107 hhcurveto
          -253 -272 -171 -402 hvcurveto
          267 -23 rmoveto
          267 67 242 237 138 75 -84 -56 41 vhcurveto
          -317 -33 -103 -347 -244 hhcurveto
          -125 -53 131 164 hvcurveto
          endchar
        </CharString>
        <CharString name="percent">
          408 -5 callgsubr
          198 180 -80 1237 -868 178 187 180 289 178 hintmask 1011101011100000
          522 -63 callgsubr
          510 -552 rmoveto
          -221 144 -145 180 -75 callsubr
          vhcurveto
          180 -56 callsubr
          hintmask 0100010100000000
          -914 -345 rmoveto
          -51 callsubr
        </CharString>
        <CharString name="period">
          -786 -18 320 hstem
          182 319 vstem
          182 141 rmoveto
          -88 callsubr
          endchar
        </CharString>
        <CharString name="periodcentered">
          -786 608 320 hstem
          182 319 vstem
          341 608 rmoveto
          91 69 69 90 91 -69 70 -91 -90 -69 -70 -91 -90 69 -69 90 hvcurveto
          endchar
        </CharString>
        <CharString name="perthousand">
          1096 -5 callgsubr
          238 180 -146 1237 -802 178 44 180 289 178 122 180 289 178 hintmask 1011101011111000
          562 -63 callgsubr
          1136 -552 rmoveto
          -221 144 -145 180 -75 callsubr
          vhcurveto
          -769 hmoveto
          -221 144 -145 180 -75 callsubr
          vhcurveto
          949 -56 callsubr
          -769 -56 callsubr
          hintmask 0100010100000000
          -837 -345 rmoveto
          -51 callsubr
        </CharString>
        <CharString name="pi">
          64 -20 87 -46 25 838 59 -59 138 hstemhm
          93 235 94 88 347 255 hintmask 01101110
          120 63 rmoveto
          hintmask 10101110
          -43 30 51 -40 73 hhcurveto
          150 86 95 177 hvcurveto
          632 347 -562 vlineto
          -276 156 -66 141 87 58 17 36 54 vhcurveto
          -37 64 rlineto
          -23 -33 -20 -7 -47 hhcurveto
          -61 -43 60 132 hvcurveto
          625 246 vlineto
          hintmask 01011110
          138 -996 vlineto
          -154 -78 -28 -125 -22 14 -79 6 -24 hvcurveto
          64 1 rlineto
          39 8 -23 100 132 hhcurveto
          91 -616 hlineto
          -138 -32 -62 -85 2 vhcurveto
          14 19 9 23 26 vvcurveto
          65 -52 53 -66 -65 -52 -53 -65 -29 10 -26 17 -20 vhcurveto
          endchar
        </CharString>
        <CharString name="plus">
          67 545 100 hstem
          716 104 vstem
          270 545 rmoveto
          446 -447 104 447 5 callgsubr
          hlineto
          endchar
        </CharString>
        <CharString name="plusminus">
          67 0 100 445 100 hstem
          716 104 vstem
          270 hmoveto
          996 100 -446 445 5 callgsubr
          -100 446 -445 -446 hlineto
          endchar
        </CharString>
        <CharString name="product">
          240 -74 callgsubr
          hstem
          252 269 665 269 vstem
          93 hmoveto
          594 78 -165 -44 callsubr
          665 -54 callgsubr
          -166 -78 596 78 -160 -44 callsubr
          158 78 -1521 -78 160 -54 callgsubr
          -159 hlineto
          endchar
        </CharString>
        <CharString name="q">
          -104 -560 78 462 92 873 78 -69 86 hstemhm
          104 280 526 35 hintmask 11101100
          104 513 -57 callgsubr
          -586 -181 -78 591 78 -150 1427 148 78 -408 -75 vlineto
          hintmask 11011100
          -86 callgsubr
          -55 callgsubr
          endchar
        </CharString>
        <CharString name="question">
          -105 302 145 hstem
          150 1068 vstem
          569 447 -28 callgsubr
          -212 -183 -157 -1 vhcurveto
          -1 -7 0 -7 -7 vvcurveto
          -92 72 -72 92 94 71 72 92 77 -48 62 -69 20 vhcurveto
          -24 callsubr
          -49 -609 rmoveto
          -88 callsubr
          endchar
        </CharString>
        <CharString name="questiondown">
          -105 1110 145 hstem
          146 1068 vstem
          795 1110 rmoveto
          -97 hlineto
          -53 -283 rlineto
          -227 -48 -272 -197 -304 vvcurveto
          -261 256 -164 316 282 212 183 157 1 vhcurveto
          1 7 0 7 7 vvcurveto
          92 -72 72 -92 -94 -71 -72 -92 -77 48 -62 69 -20 vhcurveto
          -68 -55 -92 -48 -131 hhcurveto
          -217 -112 125 177 243 175 227 285 96 hvcurveto
          49 609 -16 callgsubr
        </CharString>
        <CharString name="quotedbl">
          -273 1020 664 hstemhm
          281 254 125 254 hintmask 11000000
          366 1020 -38 callsubr
          hintmask 10100000
          463 -539 -38 callsubr
          endchar
        </CharString>
        <CharString name="quotedblbase">
          -274 -319 -3 callsubr
          -319 -83 callsubr
          hintmask 10100000
          542 -58 -83 callsubr
          endchar
        </CharString>
        <CharString name="quotedblleft">
          -274 1039 631 hstemhm
          191 309 181 309 hintmask 11000000
          419 1670 -61 callgsubr
          hintmask 10100000
          438 58 -61 callgsubr
          endchar
        </CharString>
        <CharString name="quotedblright">
          -274 1050 -3 callsubr
          1050 -83 callsubr
          hintmask 10100000
          542 -58 -83 callsubr
          endchar
        </CharString>
        <CharString name="quoteleft">
          -785 1039 631 hstem
          181 309 vstem
          409 1670 -61 callgsubr
          endchar
        </CharString>
        <CharString name="quoteright">
          -785 1050 631 hstem
          194 309 vstem
          275 1050 -83 callsubr
          endchar
        </CharString>
        <CharString name="quotesinglbase">
          -785 21 -21 hstem
          194 309 vstem
          194 161 -2 callsubr
          -63 85 vhcurveto
          9 hlineto
          -9 -104 -63 -110 -63 -47 52 -58 rcurveline
          100 61 128 203 161 vvcurveto
          142 -67 64 -90 -86 -66 -64 -3 callgsubr
        </CharString>
        <CharString name="quotesingle">
          -614 1020 664 hstem
          300 254 vstem
          385 1020 -38 callsubr
          endchar
        </CharString>
        <CharString name="r">
          -5 callsubr
          hstemhm
          429 69 233 267 hintmask 10111000
          -82 callgsubr
          hintmask 11011000
          -33 callgsubr
          endchar
        </CharString>
        <CharString name="racute">
          -5 callsubr
          164 -2 callgsubr
          429 69 -68 439 -138 267 hintmask 10101010
          -82 callgsubr
          hintmask 11001010
          -33 callgsubr
          hintmask 00010100
          374 1107 -100 callgsubr
        </CharString>
        <CharString name="radical">
          873 78 hstem
          110 1513 vstem
          712 -116 rmoveto
          75 hlineto
          836 1958 rlineto
          -90 hlineto
          -699 -1617 -298 726 rlineto
          -426 -78 198 hlineto
          endchar
        </CharString>
        <CharString name="rcaron">
          -5 callsubr
          164 420 hstemhm
          155 742 -468 69 233 267 hintmask 10100110
          -82 callgsubr
          hintmask 11000110
          -33 callgsubr
          hintmask 00011000
          443 1107 -91 callgsubr
        </CharString>
        <CharString name="rcommaaccent">
          -445 -52 callgsubr
          336 77 868 78 17 -20 hstemhm
          233 309 -113 69 233 267 hintmask 00101011
          -82 callgsubr
          hintmask 00110011
          -33 callgsubr
          hintmask 11000100
          146 -322 -104 callsubr
        </CharString>
        <CharString name="registered">
          226 339 82 313 74 -42 49 261 75 348 78 296 83 hstemhm
          39 97 366 319 -176 31 343 186 343 96 hintmask 1011111011100000
          842 339 rmoveto
          445 357 361 446 447 -357 363 -445 -446 -357 -363 -447 -446 357 -361 446 hvcurveto
          82 vmoveto
          -398 -308 326 398 398 308 330 398 399 307 -330 -398 -398 -307 -326 -399 hvcurveto
          -437 316 rmoveto
          417 78 -146 261 112 hlineto
          161 30 -125 -72 19 hvcurveto
          hintmask 1101111011100000
          -124 23 30 -21 129 hhcurveto
          114 74 -25 hlineto
          -143 103 243 54 -226 hvcurveto
          116 31 86 70 112 vvcurveto
          104 -40 155 -337 vhcurveto
          -409 -78 84 hlineto
          hintmask 1011111101100000
          -1 -684 rlineto
          -97 hlineto
          hintmask 1011111011100000
          271 336 rmoveto
          348 133 vlineto
          170 40 -76 -111 -61 -37 -100 -163 hvcurveto
          endchar
        </CharString>
        <CharString name="ring">
          1151 436 hstem
          563 253 vstem
          689 1151 -77 callsubr
        </CharString>
        <CharString name="ring.cap">
          -789 1627 369 -317 264 hstemhm
          242 197 hintmask 00000000
          340 1627 -37 callgsubr
          hvcurveto
          hintmask 10100000
          -112 93 -74 123 vhcurveto
          -27 callgsubr
          hvcurveto
          hintmask 01100000
          -75 -26 -59 -73 vhcurveto
          endchar
        </CharString>
        <CharString name="s">
          -445 -20 2 callsubr
          443 174 -136 76 hintmask 01110010
          135 hmoveto
          96 hlineto
          3 39 13 21 20 13 rrcurveto
          hintmask 10101100
          -48 63 104 -45 134 hhcurveto
          156 221 97 212 184 -141 84 -204 72 hvcurveto
          -207 73 -65 53 71 vvcurveto
          71 72 62 120 151 103 -74 -125 23 vhcurveto
          hintmask 01101010
          88 279 -76 hlineto
          -1 -44 -34 -24 -15 -5 rrcurveto
          40 -49 -86 34 -91 hhcurveto
          -213 -179 -112 -184 -160 120 -116 244 -88 hvcurveto
          hintmask 10110100
          171 -61 95 -53 -66 vvcurveto
          -72 -60 -66 -134 -224 -121 151 88 -1 vhcurveto
          -92 hlineto
          endchar
        </CharString>
        <CharString name="sacute">
          -29 callgsubr
          144 434 -32 callgsubr
          90 439 -86 -102 callsubr
          310 883 -100 callgsubr
        </CharString>
        <CharString name="scaron">
          -29 callgsubr
          144 420 -32 callgsubr
          -185 742 -114 -102 callsubr
          379 883 -91 callgsubr
        </CharString>
        <CharString name="scedilla">
          -445 -19 callgsubr
          107 2 callsubr
          294 177 -28 174 -136 76 hintmask 1101110101000000
          135 hmoveto
          96 hlineto
          3 39 13 21 20 13 40 -31 58 -30 72 -17 -50 -247 rcurveline
          -86 callsubr
          20 109 rlineto
          hintmask 1110101010000000
          -1 13 13 -1 14 hhcurveto
          156 221 97 212 184 -141 84 -204 72 hvcurveto
          -207 73 -65 53 71 vvcurveto
          71 72 62 120 151 103 -74 -125 23 vhcurveto
          hintmask 1101101101000000
          88 279 -76 hlineto
          -1 -44 -34 -24 -15 -5 rrcurveto
          40 -49 -86 34 -91 hhcurveto
          -213 -179 -112 -184 -160 120 -116 244 -88 hvcurveto
          hintmask 1110110010000000
          171 -61 95 -53 -66 vvcurveto
          -72 -60 -66 -134 -224 -121 151 88 -1 vhcurveto
          -92 hlineto
          endchar
        </CharString>
        <CharString name="scircumflex">
          -29 callgsubr
          139 420 -32 callgsubr
          -180 742 -119 -102 callsubr
          40 878 -98 callgsubr
        </CharString>
        <CharString name="scommaaccent">
          -445 -52 callgsubr
          316 2 callsubr
          29 309 105 174 -136 76 hintmask 0001110001000000
          135 hmoveto
          96 hlineto
          3 39 13 21 20 13 rrcurveto
          hintmask 0010101010000000
          -48 63 104 -45 134 hhcurveto
          156 221 97 212 184 -141 84 -204 72 hvcurveto
          -207 73 -65 53 71 vvcurveto
          71 72 62 120 151 103 -74 -125 23 vhcurveto
          hintmask 0001101001000000
          88 279 -76 hlineto
          -1 -44 -34 -24 -15 -5 rrcurveto
          40 -49 -86 34 -91 hhcurveto
          -213 -179 -112 -184 -160 120 -116 244 -88 hvcurveto
          hintmask 0010110010000000
          171 -61 95 -53 -66 vvcurveto
          -72 -60 -66 -134 -224 -121 151 88 -1 vhcurveto
          -92 hlineto
          hintmask 0001110001000000
          hintmask 1100000100000000
          218 -546 -104 callsubr
        </CharString>
        <CharString name="section">
          -103 -340 83 708 73 483 73 671 100 -63 83 hstemhm
          156 78 -5 129 668 29 3 162 hintmask 1110110110000000
          145 88 rmoveto
          -408 89 vlineto
          40 17 49 24 27 vhcurveto
          -73 79 165 -63 182 hhcurveto
          276 243 147 274 162 -90 105 -289 113 hvcurveto
          224 36 155 134 231 vvcurveto
          172 -101 108 -334 121 vhcurveto
          hintmask 1110101110000000
          -358 146 -69 70 128 vvcurveto
          111 143 70 184 178 171 -98 -211 21 vhcurveto
          96 hlineto
          hintmask 1111010110000000
          372 -93 vlineto
          -24 callgsubr
          -20 rrcurveto
          hintmask 1110110110000000
          51 -60 -116 45 -160 hhcurveto
          -298 -242 -141 -241 -175 72 -133 278 -119 hvcurveto
          -204 -44 -146 -121 -189 vvcurveto
          -201 96 -146 395 -133 vhcurveto
          321 -105 58 -76 -118 vvcurveto
          -123 -144 -63 -183 -233 -168 144 201 -50 vhcurveto
          435 436 rmoveto
          hintmask 1110101110000000
          -270 118 -55 69 115 vvcurveto
          106 128 69 168 5 vhcurveto
          314 -104 58 -75 -117 vvcurveto
          -123 -140 -63 -177 vhcurveto
          endchar
        </CharString>
        <CharString name="semicolon">
          -786 -2 63 658 320 hstemhm
          182 319 -317 329 hintmask 10010000
          -40 callsubr
          hintmask 01100000
          -2 719 rmoveto
          -88 callsubr
          endchar
        </CharString>
        <CharString name="seven">
          -274 21 -21 1315 215 hstem
          93 1033 vstem
          421 hmoveto
          325 hlineto
          -41 438 137 582 284 440 rrcurveto
          70 -968 vlineto
          -65 -442 rlineto
          78 hlineto
          8 30 12 47 8 26 rrcurveto
          91 32 70 33 110 hhcurveto
          549 hlineto
          -232 -270 -338 -586 31 -459 rrcurveto
          endchar
        </CharString>
        <CharString name="six">
          -104 -20 83 818 100 199 370 -71 71 hstemhm
          115 277 500 274 -163 264 hintmask 11011010
          711 -20 rmoveto
          300 256 239 292 338 -244 132 -247 -166 -137 -84 -93 -81 hvcurveto
          404 8 132 271 249 hhcurveto
          91 46 -21 -28 29 hvcurveto
          hintmask 11101100
          -34 -21 -21 -38 -48 vvcurveto
          -75 53 -68 85 86 50 61 85 4 0 4 -1 5 vhcurveto
          122 -10 -146 89 -213 hhcurveto
          -448 -233 -413 -420 -465 248 -272 348 hvcurveto
          83 vmoveto
          -214 -97 256 357 -8 hvcurveto
          124 78 121 81 137 hhcurveto
          hintmask 11101010
          193 82 -163 -238 -252 -110 -165 -182 hvcurveto
          endchar
        </CharString>
        <CharString name="slash">
          6 callgsubr
          6 -554 rmoveto
          158 hlineto
          855 2237 rlineto
          -157 hlineto
          endchar
        </CharString>
        <CharString name="space">
          -787 endchar
        </CharString>
        <CharString name="sterling">
          -102 -22 208 -54 203 266 78 171 78 538 79 hstemhm
          286 259 -202 262 250 249 hintmask 10111101
          56 23 rmoveto
          59 -45 rlineto
          hintmask 01111101
          65 59 80 89 68 hhcurveto
          hintmask 10111011
          197 165 -154 217 hhcurveto
          156 126 220 118 67 hvcurveto
          -63 47 rlineto
          -38 -29 -97 -139 -91 hhcurveto
          -171 -125 125 21 -174 hvcurveto
          70 56 35 52 138 7 -1 8 8 vvcurveto
          267 hlineto
          7 78 rlineto
          -279 hlineto
          -5 55 -10 58 -9 58 rrcurveto
          316 hlineto
          7 78 rlineto
          -335 hlineto
          hintmask 01111101
          -9 66 -9 65 61 vvcurveto
          189 -3 48 157 179 hhcurveto
          94 77 -34 -44 21 hvcurveto
          -50 -6 -56 -38 -33 callsubr
          -143 120 -218 -254 -202 -137 -287 -1 vhcurveto
          -1 -79 4 -61 6 -53 rrcurveto
          -228 hlineto
          -7 -78 rlineto
          245 hlineto
          8 -54 10 -52 8 -65 rrcurveto
          -284 hlineto
          -7 -78 rlineto
          299 hlineto
          hintmask 01111011
          4 -42 11 -150 -93 -146 -83 -97 rlinecurve
          -54 -54 -46 -54 -22 -35 rrcurveto
          endchar
        </CharString>
        <CharString name="summation">
          0 1530 hstem
          184 1173 vstem
          192 hmoveto
          1165 378 -76 hlineto
          -57 -10 -27 -106 -102 hhcurveto
          -723 hlineto
          498 625 -417 613 rlineto
          636 hlineto
          102 27 -107 -87 10 hvcurveto
          76 271 -1167 -97 hlineto
          509 -747 -501 -621 rlineto
          endchar
        </CharString>
        <CharString name="t">
          -616 -20 87 878 78 hstem
          178 265 vstem
          178 312 -89 callsubr
          endchar
        </CharString>
        <CharString name="tbar">
          -616 -20 87 534 77 267 78 hstemhm
          50 714 -586 265 hintmask 11101000
          178 312 rmoveto
          -258 162 -74 195 119 104 58 71 59 vhcurveto
          hintmask 11110000
          -53 47 rlineto
          -60 -54 -61 -29 -65 hhcurveto
          hintmask 11101000
          -85 -56 51 122 hvcurveto
          361 vlineto
          hintmask 11110000
          321 77 hlineto
          hintmask 11101000
          -321 267 329 78 -329 372 hlineto
          -21 -35 -141 -45 -89 hhcurveto
          -306 -121 -78 121 -267 vlineto
          hintmask 11110000
          -128 -77 hlineto
          hintmask 11101000
          128 hlineto
          endchar
        </CharString>
        <CharString name="tcaron">
          -468 -20 87 878 78 101 665 hstemhm
          178 265 258 134 hintmask 00101000
          625 1124 rmoveto
          -80 callsubr
          hintmask 11010000
          -391 -859 -89 callsubr
          endchar
        </CharString>
        <CharString name="tcommaaccent">
          -616 -52 callgsubr
          316 87 878 78 hstemhm
          178 265 -137 309 hintmask 00111000
          178 312 -89 callsubr
          hintmask 11000100
          128 -1190 -104 callsubr
        </CharString>
        <CharString name="thorn">
          -104 -560 2244 hstem
          472 527 vstem
          472 72 rmoveto
          -56 72 122 -36 114 hhcurveto
          267 232 195 332 375 -214 158 -258 -158 -116 -62 -63 -61 hvcurveto
          769 -410 -80 150 vlineto
          -1 -2086 rlineto
          -150 -78 591 78 -180 hlineto
          661 vmoveto
          615 vlineto
          61 91 98 61 108 2 rrcurveto
          116 1 144 -62 -381 vvcurveto
          -325 -110 -115 -151 -90 -107 40 73 -69 vhcurveto
          endchar
        </CharString>
        <CharString name="three">
          -103 -20 83 680 80 -14 12 646 83 hstemhm
          162 293 -266 288 392 276 -192 279 hintmask 10111001
          162 278 rmoveto
          -185 221 -113 230 356 263 170 301 209 -179 142 -260 17 vhcurveto
          hintmask 10110110
          219 43 133 166 167 vvcurveto
          209 -164 146 -327 -206 -259 -128 -165 -65 39 -85 106 81 62 65 81 57 -39 64 -70 16 vhcurveto
          57 57 94 20 87 hhcurveto
          162 101 -84 -198 hvcurveto
          hintmask 11011001
          -201 -132 -160 -266 -1 vhcurveto
          -93 vlineto
          257 61 225 -158 -235 vvcurveto
          -184 -97 -151 -228 -164 -53 28 47 -59 vhcurveto
          66 21 37 61 58 7 callgsubr
        </CharString>
        <CharString name="threequarters">
          5 callsubr
          162 11 callsubr
          45 10 callsubr
          -1139 242 -219 180 678 187 hintmask 1011000000001000
          -47 callsubr
          hintmask 0000111000010000
          -774 569 -48 callgsubr
          hintmask 0000110100010000
          8 callsubr
          hintmask 0000111000100000
          -50 callsubr
          hintmask 0100000011000000
          -205 -807 rmoveto
          -51 callsubr
        </CharString>
        <CharString name="threesuperior">
          -615 1030 11 callsubr
          hstemhm
          303 242 -219 180 hintmask 11100100
          410 956 -48 callgsubr
          hintmask 11010100
          8 callsubr
          hintmask 11101000
          -50 callsubr
          endchar
        </CharString>
        <CharString name="tilde">
          1239 0 callgsubr
          324 741 hintmask 00000000
          hintmask 10100000
          370 1253 -48 callsubr
          hintmask 01100000
          -71 callsubr
          hintmask 10100000
          -82 -93 98 -111 -77 callgsubr
          endchar
        </CharString>
        <CharString name="tilde.cap">
          -450 1692 -18 callgsubr
          134 740 hintmask 00000000
          hintmask 01100000
          180 1701 rmoveto
          hintmask 10100000
          53 48 40 36 54 hhcurveto
          91 101 -103 5 104 hvcurveto
          121 82 135 96 53 hvcurveto
          hintmask 01100000
          -46 33 rlineto
          -53 -48 -40 -36 -54 -85 -96 98 -115 -77 callgsubr
          endchar
        </CharString>
        <CharString name="trademark">
          582 856 56 -30 30 406 211 -65 65 -59 59 -55 43 hstemhm
          171 61 193 170 194 61 174 85 518 171 hintmask 1000011111100000
          946 856 rmoveto
          242 56 -79 477 hlineto
          238 -523 rlineto
          71 hlineto
          209 495 rlineto
          -449 -65 -56 315 56 -78 562 80 vlineto
          hintmask 0100101111100000
          55 -264 vlineto
          -192 -437 -194 437 rlineto
          -283 hlineto
          hintmask 0101001111100000
          -65 78 -552 -78 vlineto
          hintmask 1000101111100000
          -623 -56 rmoveto
          376 56 -103 558 57 hlineto
          hintmask 0110001111100000
          112 -3 20 -47 4 -102 rrcurveto
          61 211 -679 -211 61 hlineto
          hintmask 0100101111100000
          105 5 19 47 120 hhcurveto
          50 hlineto
          -1 -558 rlineto
          -102 hlineto
          endchar
        </CharString>
        <CharString name="two">
          -103 0 225 1245 80 hstemhm
          156 298 436 285 -52 74 hintmask 11101000
          150 hmoveto
          1047 388 -74 hlineto
          -57 -10 -27 -106 -102 hhcurveto
          -539 hlineto
          hintmask 11110000
          331 239 399 331 348 vvcurveto
          279 -221 128 -290 -271 -237 -160 -177 -97 66 -60 85 80 67 59 81 62 -45 65 -78 8 vhcurveto
          86 59 96 53 131 hhcurveto
          141 132 -70 -254 -415 -479 -434 -261 -208 hvcurveto
          endchar
        </CharString>
        <CharString name="twosuperior">
          -615 963 139 351 167 13 61 hstemhm
          147 181 180 175 -16 52 hintmask 11110100
          153 963 -7 callsubr
          hintmask 11111000
          -57 callsubr
          endchar
        </CharString>
        <CharString name="u">
          -53 callgsubr
          -31 callgsubr
          437 70 hintmask 10111000
          191 333 rmoveto
          -305 263 -48 130 115 108 46 72 81 vhcurveto
          hintmask 01111000
          -98 387 78 -129 945 -431 -78 173 -745 vlineto
          hintmask 10111000
          -78 -68 -85 -46 -89 hhcurveto
          -131 -64 75 136 hvcurveto
          736 -402 -78 142 vlineto
          endchar
        </CharString>
        <CharString name="uacute">
          -53 callgsubr
          161 434 -31 callgsubr
          60 439 -62 -100 callsubr
          351 239 -100 callgsubr
        </CharString>
        <CharString name="ubreve">
          -53 callgsubr
          194 172 -31 callgsubr
          -164 62 528 62 -51 -62 callgsubr
          422 272 -95 callsubr
        </CharString>
        <CharString name="ucircumflex">
          -53 callgsubr
          156 420 -31 callgsubr
          -210 742 -95 -100 callsubr
          81 234 -98 callgsubr
        </CharString>
        <CharString name="udieresis">
          -53 callgsubr
          221 243 -31 callgsubr
          -191 -17 callgsubr
          -75 -62 callgsubr
          648 299 rmoveto
          -93 callsubr
          -456 hmoveto
          -93 callsubr
          endchar
        </CharString>
        <CharString name="ugrave">
          -53 callgsubr
          161 434 -31 callgsubr
          -181 439 179 -100 callsubr
          487 239 rmoveto
          -90 callsubr
        </CharString>
        <CharString name="uhungarumlaut">
          -53 callgsubr
          152 465 -31 callgsubr
          -99 795 -259 -100 callsubr
          566 237 -82 callsubr
        </CharString>
        <CharString name="umacron">
          -53 callgsubr
          268 123 -31 callgsubr
          -156 657 -64 -100 callsubr
          104 346 -70 callgsubr
        </CharString>
        <CharString name="underscore">
          -101 -333 128 hstem
          -10 1388 vstem
          -10 -205 rmoveto
          -128 1388 128 vlineto
          endchar
        </CharString>
        <CharString name="uni0001">
          -40 callgsubr
        </CharString>
        <CharString name="uni0002">
          -40 callgsubr
        </CharString>
        <CharString name="uni0003">
          -40 callgsubr
        </CharString>
        <CharString name="uni0004">
          -40 callgsubr
        </CharString>
        <CharString name="uni0005">
          -40 callgsubr
        </CharString>
        <CharString name="uni0006">
          -40 callgsubr
        </CharString>
        <CharString name="uni0007">
          -40 callgsubr
        </CharString>
        <CharString name="uni0008">
          -40 callgsubr
        </CharString>
        <CharString name="uni0009">
          -40 callgsubr
        </CharString>
        <CharString name="uni0010">
          -40 callgsubr
        </CharString>
        <CharString name="uni0011">
          -40 callgsubr
        </CharString>
        <CharString name="uni0012">
          -40 callgsubr
        </CharString>
        <CharString name="uni0013">
          -40 callgsubr
        </CharString>
        <CharString name="uni0014">
          -40 callgsubr
        </CharString>
        <CharString name="uni0015">
          -40 callgsubr
        </CharString>
        <CharString name="uni0016">
          -40 callgsubr
        </CharString>
        <CharString name="uni0017">
          -40 callgsubr
        </CharString>
        <CharString name="uni0018">
          -40 callgsubr
        </CharString>
        <CharString name="uni0019">
          -40 callgsubr
        </CharString>
        <CharString name="uni00AD">
          -240 endchar
        </CharString>
        <CharString name="uni1E02">
          65 -35 callsubr
          677 77 620 78 -10 callgsubr
          hstemhm
          276 269 8 262 248 261 -171 272 hintmask 1011010010000000
          -22 callgsubr
          hintmask 0111010100000000
          -34 callsubr
          hintmask 1011010100000000
          -37 callsubr
          hintmask 0111010010000000
          -6 callgsubr
          hintmask 0000101000000000
          -95 1622 rmoveto
          73 59 58 -92 callgsubr
          -58 2 callgsubr
        </CharString>
        <CharString name="uni1E03">
          -104 -20 1704 -457 261 hstemhm
          471 528 -321 262 hintmask 10100000
          61 hmoveto
          410 73 hlineto
          -75 callgsubr
          770 -410 -80 150 -1526 -150 vlineto
          410 102 rmoveto
          -78 callsubr
          hintmask 01010000
          337 1047 rmoveto
          73 59 57 -92 callgsubr
          -57 2 callgsubr
        </CharString>
        <CharString name="uni1E0A">
          -74 callgsubr
          -10 callgsubr
          hstem
          283 269 154 262 350 -84 callsubr
          105 1622 rmoveto
          73 59 58 -92 callgsubr
          -58 2 callgsubr
        </CharString>
        <CharString name="uni1E0B">
          -104 -8 callgsubr
          187 261 118 0 callsubr
          8 262 256 35 hintmask 10101101
          119 513 -57 callgsubr
          hintmask 01101101
          -104 408 78 -148 1606 -467 -78 207 -658 vlineto
          -86 callgsubr
          hintmask 10101101
          -55 callgsubr
          hintmask 00010010
          138 713 rmoveto
          73 59 57 -92 callgsubr
          -57 2 callgsubr
        </CharString>
        <CharString name="uni1E1E">
          -102 -35 callsubr
          639 78 657 49 -49 78 -10 callgsubr
          hstem
          252 269 84 262 73 -73 callsubr
          682 1622 rmoveto
          73 59 58 -92 callgsubr
          -58 2 callgsubr
        </CharString>
        <CharString name="uni1E1F">
          -614 14 1700 13 261 hstemhm
          298 262 -12 172 hintmask 10010000
          -68 callgsubr
          hintmask 01100000
          303 1649 rmoveto
          73 59 57 -92 callgsubr
          -57 2 callgsubr
        </CharString>
        <CharString name="uni1E40">
          580 -74 callgsubr
          -29 29 -21 21 -10 callgsubr
          hstem
          246 91 555 262 367 -64 callsubr
          960 1622 rmoveto
          73 59 58 -92 callgsubr
          -58 2 callgsubr
        </CharString>
        <CharString name="uni1E41">
          573 0 1040 187 261 hstemhm
          482 420 -257 95 162 262 161 269 hintmask 10010100
          60 hmoveto
          585 78 hlineto
          hintmask 10100100
          -21 callsubr
          hintmask 10010100
          -63 callsubr
          hintmask 10100100
          -13 callgsubr
          hintmask 01001000
          972 1149 rmoveto
          73 59 57 -92 callgsubr
          -57 2 callgsubr
        </CharString>
        <CharString name="uni1E56">
          4 callgsubr
          171 262 hstem
          222 269 26 262 240 -65 callgsubr
          -33 1119 rmoveto
          73 59 58 -92 callgsubr
          -58 2 callgsubr
        </CharString>
        <CharString name="uni1E57">
          -104 -560 1600 187 261 hstemhm
          470 528 -398 262 hintmask 10100000
          -76 callsubr
          hintmask 01010000
          260 1047 rmoveto
          73 59 57 -92 callgsubr
          -57 2 callgsubr
        </CharString>
        <CharString name="uni1E60">
          -103 -20 -39 callsubr
          190 262 hstemhm
          177 89 -78 202 173 262 233 -21 callgsubr
          hintmask 0110010001000000
          -59 callsubr
          hintmask 1010001010000000
          -73 81 169 -63 186 hhcurveto
          271 238 158 293 192 -101 123 -334 136 hvcurveto
          -358 158 -69 76 140 vvcurveto
          129 139 82 178 183 175 -98 -211 22 vhcurveto
          hintmask 1001010001000000
          96 372 -93 hlineto
          -25 callsubr
          rrcurveto
          hintmask 1010001010000000
          52 -61 -120 45 -165 hhcurveto
          -282 -248 -153 -259 -213 96 -158 395 -142 hvcurveto
          321 -121 58 -97 -128 vvcurveto
          -144 -140 -72 -177 -238 -172 144 201 -51 vhcurveto
          hintmask 0110010001000000
          -103 hlineto
          hintmask 0000100100000000
          516 1292 rmoveto
          73 59 58 -92 callgsubr
          -58 2 callgsubr
        </CharString>
        <CharString name="uni1E61">
          -29 callgsubr
          187 261 -32 callgsubr
          61 262 120 -102 callsubr
          380 926 rmoveto
          73 59 57 -92 callgsubr
          -57 2 callgsubr
        </CharString>
        <CharString name="uni1E6A">
          66 -35 callsubr
          1375 49 -48 76 -10 callgsubr
          hstemhm
          80 78 474 269 -263 262 476 78 hintmask 1010011010000000
          -68 callsubr
          hintmask 0101011010000000
          -30 callsubr
          hintmask 0110011010000000
          -56 callgsubr
          hintmask 1001011010000000
          hintmask 0000100100000000
          335 1622 rmoveto
          73 59 58 -92 callgsubr
          -58 2 callgsubr
        </CharString>
        <CharString name="uni1E6B">
          -616 -20 87 878 78 577 261 hstemhm
          178 265 -262 262 hintmask 11010000
          178 312 -89 callsubr
          hintmask 00101000
          133 655 rmoveto
          73 59 57 -92 callgsubr
          -57 2 callgsubr
        </CharString>
        <CharString name="uogonek">
          -103 -10 callsubr
          419 -30 callgsubr
          -31 callgsubr
          139 244 54 70 hintmask 11011110
          191 333 rmoveto
          -305 263 -48 130 115 108 46 72 81 vhcurveto
          -96 vlineto
          -91 -51 -207 -127 -176 vvcurveto
          -89 callgsubr
          hvcurveto
          hintmask 10111110
          98 45 67 139 124 vhcurveto
          257 78 -129 945 -431 -78 173 -745 hlineto
          hintmask 11011110
          -78 -68 -85 -46 -89 hhcurveto
          -131 -64 75 136 hvcurveto
          736 -402 -78 142 vlineto
          endchar
        </CharString>
        <CharString name="uring">
          -53 callgsubr
          128 436 -31 callgsubr
          29 253 155 -100 callsubr
          415 206 -77 callsubr
        </CharString>
        <CharString name="utilde">
          -53 callgsubr
          216 0 callgsubr
          191 260 -215 741 -89 70 hintmask 10100101
          191 333 rmoveto
          -305 263 -48 130 115 108 46 72 81 vhcurveto
          hintmask 01100101
          -98 387 78 -129 945 -431 -78 173 -745 vlineto
          hintmask 10100101
          -78 -68 -85 -46 -89 hhcurveto
          -131 -64 75 136 hvcurveto
          736 -402 -78 142 vlineto
          hintmask 00000000
          91 308 -48 callsubr
          hintmask 00010010
          -71 callsubr
          hintmask 00001010
          -82 -93 98 -111 -77 callgsubr
          endchar
        </CharString>
        <CharString name="v">
          -274 1 -21 965 36 -36 38 -38 78 hstem
          832 364 vstem
          565 -20 rmoveto
          105 hlineto
          396 965 rlineto
          130 78 -364 -78 135 hlineto
          -270 -687 -300 687 rlineto
          129 78 -527 -78 104 hlineto
          endchar
        </CharString>
        <CharString name="w">
          -46 callsubr
          hstem
          0 472 921 -94 callgsubr
          endchar
        </CharString>
        <CharString name="wacute">
          -46 callsubr
          161 434 hstem
          0 472 333 439 149 -94 callgsubr
          767 239 -100 callgsubr
        </CharString>
        <CharString name="wcircumflex">
          -46 callsubr
          156 420 hstem
          0 472 76 742 103 -94 callgsubr
          510 234 -98 callgsubr
        </CharString>
        <CharString name="wdieresis">
          -46 callsubr
          221 243 hstem
          0 472 82 -17 callgsubr
          136 -94 callgsubr
          1064 299 rmoveto
          -93 callsubr
          -456 hmoveto
          -93 callsubr
          endchar
        </CharString>
        <CharString name="wgrave">
          -46 callsubr
          161 434 hstem
          0 472 92 439 390 -94 callgsubr
          903 239 rmoveto
          -90 callsubr
        </CharString>
        <CharString name="x">
          -274 0 78 -48 48 867 34 -34 48 -48 78 -32 32 hstem
          48 385 343 364 vstem
          48 hmoveto
          385 78 -133 hlineto
          252 305 228 -305 rlineto
          -128 -78 529 78 -101 hlineto
          -371 488 317 379 rlineto
          114 78 -364 -78 139 hlineto
          -257 -312 -236 312 rlineto
          143 78 -534 -78 99 hlineto
          371 -495 -313 -372 rlineto
          -140 hlineto
          endchar
        </CharString>
        <CharString name="y">
          -26 callsubr
          29 -29 37 -37 78 -42 42 hstem
          67 262 464 375 vstem
          -99 callgsubr
          endchar
        </CharString>
        <CharString name="yacute">
          -26 callsubr
          78 -15 callgsubr
          67 262 196 439 -171 375 hintmask 11110100
          -99 callgsubr
          358 1457 rmoveto
          354 222 rlineto
          hintmask 11111000
          45 28 11 43 -2 40 -4 69 -63 38 -57 -6 -47 -6 -22 -20 -26 -40 -220 -334 rcurveline
          endchar
        </CharString>
        <CharString name="ycircumflex">
          -26 callsubr
          78 156 420 hstemhm
          67 262 -74 742 -204 375 hintmask 11110100
          -99 callgsubr
          88 1452 rmoveto
          344 204 334 -204 rlineto
          hintmask 11101000
          33 31 -251 318 rlineto
          27 -19 -44 44 -53 hhcurveto
          -49 -35 -30 -34 -25 hvcurveto
          -266 -323 rlineto
          endchar
        </CharString>
        <CharString name="ydieresis">
          -26 callsubr
          78 221 243 hstemhm
          67 262 -55 -17 callgsubr
          -184 375 hintmask 11110010
          -99 callgsubr
          655 1517 rmoveto
          hintmask 11101100
          -93 callsubr
          -456 hmoveto
          -93 callsubr
          endchar
        </CharString>
        <CharString name="yen">
          70 -35 callsubr
          262 78 183 78 10 15 748 78 hstemhm
          649 269 hintmask 01111110
          235 340 rmoveto
          414 -262 -148 hlineto
          hintmask 10111110
          -78 567 78 -149 262 357 vlineto
          7 78 rlineto
          -364 183 377 hlineto
          7 78 rlineto
          -369 hlineto
          440 773 rlineto
          150 78 -442 -78 184 hlineto
          -403 -719 -412 719 rlineto
          203 78 -644 -78 125 hlineto
          461 -773 rlineto
          -334 hlineto
          -7 -78 rlineto
          388 hlineto
          7 -12 -1 -171 rlineto
          -407 hlineto
          endchar
        </CharString>
        <CharString name="ygrave">
          -26 callsubr
          78 -15 callgsubr
          67 262 -45 439 70 375 hintmask 11110100
          -99 callgsubr
          494 1457 rmoveto
          hintmask 11101100
          -90 callsubr
        </CharString>
        <CharString name="z">
          -445 0 1023 hstem
          81 882 vstem
          -85 callsubr
          endchar
        </CharString>
        <CharString name="zacute">
          -445 0 1023 -15 callgsubr
          81 882 -530 439 hintmask 10100000
          -85 callsubr
          hintmask 01010000
          383 1106 -100 callgsubr
        </CharString>
        <CharString name="zcaron">
          -445 0 1023 161 420 hstemhm
          81 882 -805 742 hintmask 10100000
          -85 callsubr
          hintmask 01010000
          452 1106 -91 callgsubr
        </CharString>
        <CharString name="zdotaccent">
          -445 0 1023 204 261 hstemhm
          81 882 -559 262 hintmask 10100000
          -85 callsubr
          hintmask 01010000
          453 1149 rmoveto
          73 59 57 -92 callgsubr
          -57 2 callgsubr
        </CharString>
        <CharString name="zero">
          68 -20 83 1404 83 hstem
          142 297 660 296 vstem
          768 -20 rmoveto
          360 267 308 473 473 -269 316 -358 -346 -280 -316 -473 -473 278 -308 348 hvcurveto
          83 vmoveto
          -268 -61 315 383 410 61 296 268 267 64 -296 -410 -383 -64 -315 -267 hvcurveto
          endchar
        </CharString>
      <CharString index="0">
        hintmask 1110100110000000
        92 282 rmoveto
        -186 163 -116 213 136 106 69 64 55 vhcurveto
        -83 29 79 -48 102 hhcurveto
        84 79 47 56 36 hvcurveto
        -52 43 rlineto
        -35 -26 -26 -15 -26 hhcurveto
        -28 -14 19 64 hvcurveto
        533 vlineto
        217 -141 128 -300 vhcurveto
        hintmask 1110010110000000
        -150 -247 -78 -161 -89 62 -49 73 68 65 51 80 66 -53 40 -26 9 hvcurveto
        21 21 73 32 92 hhcurveto
        172 33 -94 -147 hvcurveto
        -238 vlineto
        47 -62 -92 36 -127 hhcurveto
        hintmask 1110100110000000
        -206 -165 -104 -179 hvcurveto
        266 -6 rmoveto
        140 74 60 114 77 74 -34 -49 50 vhcurveto
        -200 vlineto
        -63 -50 -81 -52 -86 hhcurveto
        -86 -86 44 154 hvcurveto
        return
      </CharString>
      <CharString index="1">
        66 0 -60 callsubr
        -29 callsubr
        444 84 218 78 -55 78 hintmask 11111101
        71 hmoveto
        -7 callgsubr
        -428 668 250 hlineto
        110 63 -33 -91 13 hvcurveto
        3 -26 2 -47 2 -30 rrcurveto
        84 516 -84 hlineto
        -2 -29 -2 -32 -3 -26 rrcurveto
        -91 -13 -61 -33 -112 hhcurveto
        -250 628 457 hlineto
        hintmask 11111110
        260 -13 15 -124 13 -221 rrcurveto
        78 436 -1293 -78 201 hlineto
        -1 -1373 rlineto
        -200 hlineto
        return
      </CharString>
      <CharString index="2">
        182 559 rmoveto
        -532 422 -47 194 313 222 164 385 vhcurveto
        923 146 78 -400 -78 156 -909 vlineto
        -416 -259 -54 -164 -235 -125 107 345 vhcurveto
        927 146 78 -552 -78 137 vlineto
        return
      </CharString>
      <CharString index="3">
        hintmask 10100000
        97 518 rmoveto
        -311 217 -227 344 169 156 85 110 89 vhcurveto
        -53 48 rlineto
        -100 -100 -119 -48 -111 hhcurveto
        hintmask 10001000
        -219 -97 187 252 hvcurveto
        30 vlineto
        hintmask 10100000
        724 hlineto
        308 -150 187 -312 -308 -230 -213 -308 vhcurveto
        281 108 rmoveto
        204 18 73 125 156 hhcurveto
        hintmask 10001000
        143 57 -116 -213 3 hvcurveto
        return
      </CharString>
      <CharString index="4">
        rmoveto
        395 137 50 18 21 39 7 39 rlinecurve
        12 68 -53 53 -57 5 -47 6 -27 -16 -34 -32 -289 -277 rcurveline
        endchar
      </CharString>
      <CharString index="5">
        21 hmoveto
        395 78 -180 hlineto
        132 349 rlineto
        607 hlineto
        144 -349 rlineto
        -150 -78 545 78 -102 hlineto
        -603 1452 rlineto
        -116 hlineto
        -564 -1452 rlineto
        -108 hlineto
        377 427 rmoveto
        261 691 284 -691 rlineto
        return
      </CharString>
      <CharString index="6">
        107 768 rmoveto
        -437 305 -351 522 246 270 100 112 80 vhcurveto
        409 129 78 -632 -78 261 -385 vlineto
        -56 -8 -143 -97 -200 hhcurveto
        -421 -107 375 330 -4 hvcurveto
        356 -4 129 343 387 hhcurveto
        238 200 -107 -249 67 hvcurveto
        85 419 -81 hlineto
        -14 -56 -12 -32 -18 -21 rrcurveto
        81 -87 -182 48 -189 hhcurveto
        -504 -313 -367 -415 hvcurveto
        return
      </CharString>
      <CharString index="7">
        rmoveto
        354 222 45 28 11 43 -2 40 rlinecurve
        -4 69 -63 38 -57 -6 -47 -6 -22 -20 -26 -40 -220 -334 rcurveline
        endchar
      </CharString>
      <CharString index="8">
        198 -273 rmoveto
        -78 -53 -59 -70 -96 86 -62 98 128 79 87 181 91 hvcurveto
        121 272 396 965 rlineto
        102 78 -375 -78 175 hlineto
        -270 -686 -302 686 rlineto
        139 78 -539 -78 107 hlineto
        462 -965 -92 -222 -71 -145 -47 -67 -51 -8 rlinecurve
        11 15 14 24 26 vvcurveto
        70 -46 54 -85 vhcurveto
        return
      </CharString>
      <CharString index="9">
        rmoveto
        344 204 334 -204 33 31 -251 318 rlineto
        27 -19 -44 44 -53 hhcurveto
        -49 -35 -30 -34 -25 hvcurveto
        -266 -323 rlineto
        endchar
      </CharString>
      <CharString index="10">
        rmoveto
        53 41 47 24 22 hvcurveto
        250 262 -28 37 -338 -164 -340 164 -28 -36 259 -270 rlineto
        -31 28 32 -33 49 hhcurveto
        endchar
      </CharString>
      <CharString index="11">
        244 -77 186 -136 122 hintmask 1111000100100000
        -41 callgsubr
        hintmask 1111001000010000
        -83 callgsubr
        hintmask 1111000100100000
        -87 callsubr
        hintmask 1111000100001000
        -78 callgsubr
        hintmask 1110100010100000
        -69 callsubr
        hintmask 1111000100100000
        -42 callgsubr
        hintmask 1111000010100000
        -26 callgsubr
        hintmask 1110101000100000
        -85 callgsubr
        hintmask 1111001000010000
        -67 callgsubr
        hintmask 0000010001000000
        return
      </CharString>
      <CharString index="12">
        rmoveto
        224 129 161 192 -32 hvcurveto
        -57 hlineto
        -126 -50 -88 -54 -126 hhcurveto
        -126 -88 54 126 -50 hvcurveto
        -57 hlineto
        -192 -32 129 -161 224 hhcurveto
        endchar
      </CharString>
      <CharString index="13">
        346 vstem
        505 -20 rmoveto
        79 hlineto
        278 693 321 -693 rlineto
        80 hlineto
        365 965 rlineto
        111 78 -346 -78 146 hlineto
        -238 -628 -318 706 rlineto
        -70 hlineto
        -284 -708 -277 630 rlineto
        120 78 -472 -78 69 hlineto
        return
      </CharString>
      <CharString index="14">
        95 hmoveto
        664 78 -197 -44 callsubr
        197 78 -664 -78 198 -54 callgsubr
        -197 hlineto
        return
      </CharString>
      <CharString index="15">
        72 73 -59 59 -73 -72 -58 -59 -73 -72 58 return
      </CharString>
      <CharString index="16">
        rmoveto
        53 44 44 27 19 hvcurveto
        251 318 -33 31 -334 -212 -344 212 -31 -33 266 -323 rlineto
        -34 25 35 -30 49 hhcurveto
        endchar
      </CharString>
      <CharString index="17">
        93 hmoveto
        475 78 -203 1249 hlineto
        903 -1327 rlineto
        186 1452 183 78 -475 -78 194 -1127 hlineto
        -810 1205 rlineto
        -453 -78 174 -1374 -174 hlineto
        return
      </CharString>
      <CharString index="18">
        -146 108 -57 165 153 145 121 44 27 vhcurveto
        -47 52 rlineto
        -44 -34 -78 -57 -71 hhcurveto
        -76 -48 63 87 return
      </CharString>
      <CharString index="19">
        140 hmoveto
        1273 437 -93 hlineto
        -208 -6 -23 -151 -281 hhcurveto
        -573 hlineto
        938 1337 rlineto
        115 -1163 -439 92 vlineto
        252 19 53 109 270 hhcurveto
        445 hlineto
        -951 -1335 rlineto
        return
      </CharString>
      <CharString index="20">
        749 -35 callsubr
        647 78 649 78 hstemhm
        958 269 434 84 218 78 -55 78 hintmask 10111101
        37 78 rmoveto
        -146 -78 449 78 -186 hlineto
        387 647 rlineto
        417 -646 -210 -79 -7 callgsubr
        -418 647 240 hlineto
        110 63 -33 -91 13 hvcurveto
        3 -26 2 -47 2 -30 rrcurveto
        84 516 -84 hlineto
        -2 -29 -2 -32 -3 -26 rrcurveto
        -91 -13 -61 -33 -112 hhcurveto
        -240 649 447 hlineto
        hintmask 01111110
        260 -13 15 -124 13 -221 rrcurveto
        78 436 -1293 -78 123 hlineto
        -282 -648 rmoveto
        370 618 -1 -618 rlineto
        return
      </CharString>
      <CharString index="21">
        55 -72 -122 37 -113 hhcurveto
        -267 -232 -195 -332 hvcurveto
        280 1 rmoveto
        325 110 115 151 89 107 -40 -72 69 vhcurveto
        -618 vlineto
        return
      </CharString>
      <CharString index="22">
        166 44 135 165 164 47 -135 -165 -169 -53 -119 -163 vhcurveto
        -299 -652 rmoveto
        101 63 81 90 24 vhcurveto
        305 hlineto
        return
      </CharString>
      <CharString index="23">
        589 78 -162 945 -413 -78 148 -45 callsubr
        hlineto
        return
      </CharString>
      <CharString index="24">
        -120 -35 -93 -90 -109 vvcurveto
        -193 253 -68 261 285 264 117 262 262 -255 49 -219 vhcurveto
        -281 hlineto
        return
      </CharString>
      <CharString index="25">
        87 hmoveto
        630 77 -219 712 hlineto
        71 78 96 48 74 23 rrcurveto
        -5 -15 -3 -16 -16 vvcurveto
        -75 58 -59 75 75 59 59 75 91 -68 58 -99 -119 -130 -76 -79 -84 vhcurveto
        return
      </CharString>
      <CharString index="26">
        rmoveto
        378 202 42 22 20 30 4 31 rlinecurve
        8 55 -41 55 -55 9 -34 4 -39 -14 -36 -40 -276 -318 rcurveline
        -340 -42 rmoveto
        366 205 41 22 18 31 3 31 rlinecurve
        5 54 -43 57 -56 7 -33 5 -37 -14 -34 -42 -259 -320 rcurveline
        endchar
      </CharString>
      <CharString index="27">
        rmoveto
        185 -117 221 -140 188 -161 46 50 rcurveline
        -114 159 -125 130 -114 119 114 121 125 128 114 158 -46 50 rcurveline
        -184 -166 -221 -141 -189 -111 rrcurveto
        return
      </CharString>
      <CharString index="28">
        84 218 78 -55 78 hintmask 1111010101000000
        71 hmoveto
        -7 callgsubr
        -428 668 250 hlineto
        110 63 -33 -91 13 hvcurveto
        3 -26 2 -47 2 -30 rrcurveto
        84 516 -84 hlineto
        -2 -29 -2 -32 -3 -26 rrcurveto
        -91 -13 -61 -33 -112 hhcurveto
        -250 628 457 hlineto
        hintmask 1111010110000000
        260 -13 15 -124 13 -221 rrcurveto
        78 436 -1293 -78 201 hlineto
        -1 -1373 rlineto
        -200 hlineto
        hintmask 0000101000000000
        return
      </CharString>
      <CharString index="29">
        1 3 0 3 4 vvcurveto
        68 -56 53 -67 -76 -51 -65 -61 -47 27 -37 37 -21 vhcurveto
        -22 -18 -29 -12 -39 -7 rrcurveto
        return
      </CharString>
      <CharString index="30">
        hhcurveto
        -121 -82 -135 -96 -53 hvcurveto
        return
      </CharString>
      <CharString index="31">
        hintmask 10100000
        97 518 rmoveto
        -311 217 -227 344 169 156 85 110 89 vhcurveto
        -53 48 rlineto
        -100 -100 -119 -48 -111 hhcurveto
        hintmask 10010000
        -219 -97 187 252 hvcurveto
        30 vlineto
        hintmask 10100000
        724 hlineto
        308 -150 187 -312 -308 -230 -213 -308 vhcurveto
        281 108 rmoveto
        204 18 73 125 156 hhcurveto
        hintmask 10010000
        143 57 -116 -213 3 hvcurveto
        hintmask 01001000
        return
      </CharString>
      <CharString index="32">
        -56 71 123 -37 115 hhcurveto
        267 232 195 332 375 -214 158 -258 -159 -117 -62 -64 -60 hvcurveto
        return
      </CharString>
      <CharString index="33">
        0 -69 callgsubr
        return
      </CharString>
      <CharString index="34">
        64 282 rmoveto
        -186 149 -116 221 155 148 76 96 42 vhcurveto
        -115 85 131 -57 222 hhcurveto
        165 150 85 110 87 hvcurveto
        -53 48 rlineto
        -99 -97 -113 -49 -108 hhcurveto
        -200 -99 177 243 -5 hvcurveto
        49 695 vlineto
        308 -147 187 -298 -130 -116 -43 -80 -80 vhcurveto
        79 -70 -121 44 -174 hhcurveto
        return
      </CharString>
      <CharString index="35">
        rmoveto
        -189 111 -221 141 -184 166 -46 -50 rcurveline
        114 -158 125 -128 114 -121 -114 -119 -125 -130 -114 -159 46 -50 rcurveline
        return
      </CharString>
      <CharString index="36">
        -1 -1374 rlineto
        return
      </CharString>
      <CharString index="37">
        rmoveto
        657 123 -657 hlineto
        endchar
      </CharString>
      <CharString index="38">
        -49 callsubr
        -44 callsubr
        49 -49 78 return
      </CharString>
      <CharString index="39">
        125 hmoveto
        632 78 -210 867 225 hlineto
        -20 78 rlineto
        -204 302 hlineto
        189 31 107 115 64 53 -26 -32 15 vhcurveto
        -50 -7 -56 -37 -79 vvcurveto
        -70 58 -45 64 64 64 52 80 134 -120 109 -182 -221 -160 -137 -287 vhcurveto
        -253 -36 callsubr
        return
      </CharString>
      <CharString index="40">
        165 59 -99 -90 -114 -120 -96 -233 -137 -192 25 168 hvcurveto
        return
      </CharString>
      <CharString index="41">
        -55 callsubr
        hstem
        182 270 return
      </CharString>
      <CharString index="42">
        281 vstem
        51 hmoveto
        694 78 -253 435 213 hlineto
        406 189 224 316 279 -165 198 -434 hvcurveto
        -649 -78 171 -54 callgsubr
        -171 hlineto
        441 504 rmoveto
        870 190 vlineto
        240 97 -171 -239 -181 -63 -279 -276 hvcurveto
        return
      </CharString>
      <CharString index="43">
        -182 -78 604 1 callsubr
        hlineto
        282 -230 66 -139 vhcurveto
        return
      </CharString>
      <CharString index="44">
        823 rmoveto
        -75 callsubr
        -221 144 -145 180 hvcurveto
        74 vmoveto
        -117 -27 134 158 167 27 127 117 116 29 -127 -167 -158 -29 -134 -116 hvcurveto
        return
      </CharString>
      <CharString index="45">
        70 hintmask 10101001
        191 333 rmoveto
        -305 263 -48 130 115 108 46 72 81 vhcurveto
        hintmask 01101001
        -98 387 78 -129 945 -431 -78 173 -745 vlineto
        hintmask 10101001
        -78 -68 -85 -46 -89 hhcurveto
        -131 -64 75 136 hvcurveto
        736 -402 -78 142 vlineto
        hintmask 00010110
        return
      </CharString>
      <CharString index="46">
        rmoveto
        -100 -61 -128 -203 -161 vvcurveto
        -142 67 -64 90 86 66 64 87 98 -70 63 -85 vhcurveto
        -9 hlineto
        9 105 63 110 63 46 rrcurveto
        return
      </CharString>
      <CharString index="47">
        -274 -20 98 398 89 396 78 return
      </CharString>
      <CharString index="48">
        91 101 -103 5 104 hvcurveto
        121 82 135 96 53 hvcurveto
        -46 33 rlineto
        -53 -48 -40 -36 -54 hhcurveto
        return
      </CharString>
      <CharString index="49">
        -102 -4 callsubr
        1375 -25 callgsubr
        647 78 hintmask 10101100
        71 hmoveto
        1208 -91 callsubr
        -306 1375 178 hlineto
        hintmask 01011100
        -53 callsubr
        return
      </CharString>
      <CharString index="50">
        rmoveto
        -375 214 -158 258 156 116 60 64 62 vhcurveto
        return
      </CharString>
      <CharString index="51">
        10 229 41 159 238 16 rrcurveto
        186 hlineto
        -1 -1375 rlineto
        -199 hlineto
        return
      </CharString>
      <CharString index="52">
        -61 -91 -98 -60 -107 -1 rrcurveto
        -116 -1 -144 62 381 vvcurveto
        return
      </CharString>
      <CharString index="53">
        hlineto
        -71 callgsubr
        return
      </CharString>
      <CharString index="54">
        -103 -20 -30 callgsubr
        return
      </CharString>
      <CharString index="55">
        -539 -21 174 50 return
      </CharString>
      <CharString index="56">
        589 78 -168 1606 -428 -79 163 -1527 -156 hlineto
        return
      </CharString>
      <CharString index="57">
        242 -20 83 1404 83 return
      </CharString>
      <CharString index="58">
        118 128 -103 146 hhcurveto
        135 82 141 95 44 hvcurveto
        -44 25 rlineto
        -46 -33 -40 -45 -82 hhcurveto
        return
      </CharString>
      <CharString index="59">
        rmoveto
        196 108 115 109 105 -89 63 -104 6 hvcurveto
        94 36 57 62 71 vvcurveto
        102 -84 69 -176 -124 -143 -32 -117 -29 23 -62 73 54 31 51 34 30 -13 33 -30 13 vhcurveto
        return
      </CharString>
      <CharString index="60">
        -275 -20 83 893 84 return
      </CharString>
      <CharString index="61">
        rmoveto
        437 59 -133 661 hlineto
        -299 -10 rlineto
        -54 vlineto
        113 -2 rlineto
        -595 -118 vlineto
        return
      </CharString>
      <CharString index="62">
        78 -43 43 -44 callsubr
        78 -45 45 hstem
        267 98 return
      </CharString>
      <CharString index="63">
        -28 callsubr
        78 return
      </CharString>
      <CharString index="64">
        -150 -247 -78 -161 -89 62 -49 73 68 65 51 80 66 -53 40 -26 9 hvcurveto
        21 21 73 32 92 hhcurveto
        172 33 -94 -147 hvcurveto
        -218 vlineto
        37 -61 -82 26 -108 hhcurveto
        return
      </CharString>
      <CharString index="65">
        -88 -46 -89 -85 -113 vvcurveto
        470 244 rmoveto
        return
      </CharString>
      <CharString index="66">
        122 124 rmoveto
        -91 81 -78 108 -20 vhcurveto
        return
      </CharString>
      <CharString index="67">
        -1469 endchar
      </CharString>
      <CharString index="68">
        349 78 1025 -20 return
      </CharString>
      <CharString index="69">
        -206 -165 -104 -179 hvcurveto
        885 344 rmoveto
        204 18 73 125 144 hhcurveto
        129 56 -116 -213 3 hvcurveto
        -1042 -350 rmoveto
        return
      </CharString>
      <CharString index="70">
        rmoveto
        128 88 74 112 109 -88 74 -128 -123 -93 -74 -109 return
      </CharString>
      <CharString index="71">
        -135 -147 vvcurveto
        -146 104 -57 159 148 141 121 44 26 vhcurveto
        -47 52 rlineto
        -44 -32 -74 -57 -67 hhcurveto
        -70 -44 63 87 95 return
      </CharString>
      <CharString index="72">
        -275 626 329 return
      </CharString>
      <CharString index="73">
        rmoveto
        -157 -5 -192 -184 -38 vhcurveto
        21 -82 rlineto
        205 12 228 136 330 vvcurveto
        1055 -12 callsubr
      </CharString>
      <CharString index="74">
        138 -412 -78 150 -868 -149 vlineto
        return
      </CharString>
      <CharString index="75">
        hstemhm
        137 94 -90 187 return
      </CharString>
      <CharString index="76">
        hstemhm
        191 260 return
      </CharString>
      <CharString index="77">
        96 -76 -44 callgsubr
        return
      </CharString>
      <CharString index="78">
        -445 -20 82 -41 -21 959 81 return
      </CharString>
      <CharString index="79">
        rmoveto
        97 hlineto
        53 283 rlineto
        227 48 272 197 304 vvcurveto
        261 -256 164 -316 -282 return
      </CharString>
      <CharString index="80">
        52 vmoveto
        -71 -27 58 76 77 27 53 71 73 26 -53 -77 return
      </CharString>
      <CharString index="81">
        -164 -40 121 166 hvcurveto
        return
      </CharString>
      <CharString index="82">
        48 -48 77 hstemhm
        285 269 return
      </CharString>
      <CharString index="83">
        -1 -29 -10 -27 -15 return
      </CharString>
      <CharString index="84">
        -271 546 100 hstem
        237 724 vstem
        237 546 rmoveto
        724 100 -724 hlineto
        endchar
      </CharString>
      <CharString index="85">
        106 hmoveto
        750 hlineto
        376 193 178 261 190 -133 150 -264 32 hvcurveto
        return
      </CharString>
      <CharString index="86">
        194 -162 93 return
      </CharString>
      <CharString index="87">
        368 199 -151 -500 7 hvcurveto
        -532 7 -170 -191 -424 hhcurveto
        endchar
      </CharString>
      <CharString index="88">
        -560 75 238 120 return
      </CharString>
      <CharString index="89">
        175 -15 callsubr
        return
      </CharString>
      <CharString index="90">
        247 209 247 return
      </CharString>
      <CharString index="91">
        rmoveto
        90 -69 69 -90 -91 -69 -69 -90 -91 69 -70 91 90 69 70 91 vhcurveto
        endchar
      </CharString>
      <CharString index="92">
        161 -2 callgsubr
        return
      </CharString>
      <CharString index="93">
        45 6 207 return
      </CharString>
      <CharString index="94">
        -139 -103 -56 -75 -82 hvcurveto
        114 -423 -76 163 -869 -162 vlineto
        return
      </CharString>
      <CharString index="95">
        hhcurveto
        126 31 -88 -145 hvcurveto
        -634 return
      </CharString>
      <CharString index="96">
        57 hmoveto
        604 78 hlineto
        return
      </CharString>
      <CharString index="97">
        170 262 return
      </CharString>
      <CharString index="98">
        187 252 hvcurveto
        30 707 vlineto
        308 -150 187 -305 return
      </CharString>
      <CharString index="99">
        -20 92 -72 78 876 86 return
      </CharString>
      <CharString index="100">
        4 callsubr
        -91 callsubr
        return
      </CharString>
      <CharString index="101">
        262 91 -165 -178 -212 -134 -122 -241 hvcurveto
        return
      </CharString>
      <CharString index="102">
        -21 74 -32 -21 640 75 108 74 586 76 -29 -20 hstemhm
        return
      </CharString>
      <CharString index="103">
        hstemhm
        97 1000 return
      </CharString>
      <CharString index="104">
        -87 vhcurveto
        endchar
      </CharString>
      <CharString index="105">
        434 hstemhm
        return
      </CharString>
      <CharString index="106">
        -20 95 -95 98 398 89 -21 82 329 84 -78 78 return
      </CharString>
      <CharString index="107">
        180 -15 callsubr
        return
      </CharString>
      <CharString index="108">
        996 100 -996 hlineto
        return
      </CharString>
      <CharString index="109">
        72 hvcurveto
        endchar
      </CharString>
      <CharString index="110">
        -163 rmoveto
        -64 -63 -53 -80 -144 127 -120 return
      </CharString>
      <CharString index="111">
        -105 -35 callsubr
        435 69 870 49 -49 78 return
      </CharString>
      <CharString index="112">
        446 100 -446 469 -104 -469 -446 return
      </CharString>
      <CharString index="113">
        -444 -554 2237 hstem
        6 1013 vstem
        return
      </CharString>
      <CharString index="114">
        vvcurveto
        80 -65 66 -82 -81 -65 -65 -81 vhcurveto
        endchar
      </CharString>
      <CharString index="115">
        rmoveto
        53 48 44 43 54 hhcurveto
        return
      </CharString>
      <CharString index="116">
        hstemhm
        64 266 -224 268 315 72 return
      </CharString>
      <CharString index="117">
        -275 41 915 hstem
        277 640 vstem
        return
      </CharString>
      <CharString index="118">
        -445 -560 78 2171 78 hstem
        return
      </CharString>
      <CharString index="119">
        13 2 11 14 vvcurveto
        47 -44 53 -58 -43 return
      </CharString>
</ttFont>
